<ttFont>
<head>
    <!-- Most of this table will be recalculated by the compiler -->
    <tableVersion value="1.0"/>
    <fontRevision value="1.0"/>
    <checkSumAdjustment value="0x62fc1273"/>
    <magicNumber value="0x5f0f3cf5"/>
    <flags value="00000000 00000011"/>
    <unitsPerEm value="2048"/>
    <created value="Tue May 30 14:29:25 2017"/>
    <modified value="Wed May 31 02:50:51 2017"/>
    <xMin value="-507"/>
    <yMin value="-494"/>
    <xMax value="2689"/>
    <yMax value="2083"/>
<macStyle value="00000000 00000010"/>
    <lowestRecPPEM value="3"/>
    <fontDirectionHint value="2"/>
    <indexToLocFormat value="0"/>
    <glyphDataFormat value="0"/>
  </head>
          <CharString index="0">
            rmoveto
            264 43 190 184 232 hhcurveto
            208 128 -140 -217 -43 -2 -20 -7 -28 hvcurveto
            -457 -578 rmoveto
            217 167 115 191 64 hvcurveto
            -52 hlineto
            -165 -60 -143 -95 -189 hhcurveto
            -219 -138 146 234 25 3 37 7 45 hvcurveto
            841 hlineto
            10 37 6 54 46 vvcurveto
            247 -147 155 -234 -307 -229 -279 -372 -256 155 -165 248 vhcurveto
            return
          </CharString>
          <CharString index="1">
            rmoveto
            311 209 -218 -345 -464 -297 -362 -380 -311 -209 218 345 464 297 362 380 hvcurveto
            -161 -1436 rmoveto
            19 callgsubr
            -416 -316 -380 -499 -365 230 -239 337 hvcurveto
            return
          </CharString>
          <CharString index="2">
            rmoveto
            29 25 24 -20 callsubr
            -22 callgsubr
            277 hmoveto
            30 24 24 30 29 -24 24 -30 -29 -25 -24 -29 -30 25 -22 callgsubr
            endchar
          </CharString>
          <CharString index="3">
            230 663 -20 rmoveto
            309 215 174 301 64 hvcurveto
            212 988 -10 callsubr
            -211 -982 rlineto
            -271 -58 -200 -163 -277 hhcurveto
            -261 -173 152 227 46 5 55 8 35 hvcurveto
            193 901 -10 callsubr
            -193 -898 rlineto
            -9 -46 -5 -47 -50 vvcurveto
            -250 1 192 -172 288 hhcurveto
            return
          </CharString>
          <CharString index="4">
            1375 rmoveto
            4 hlineto
            141 -828 rlineto
            -634 hlineto
            727 -547 rmoveto
            48 hlineto
            -248 -28 callgsubr
            -51 hlineto
            -861 94 callgsubr
            299 502 rlineto
            668 hlineto
            return
          </CharString>
          <CharString index="5">
            -251 9 213 -170 304 hhcurveto
            292 195 164 235 164 -94 105 -219 85 hvcurveto
            -133 52 rlineto
            -226 89 -89 86 144 vvcurveto
            183 167 129 241 240 176 -144 -204 16 vhcurveto
            50 hlineto
            234 -16 -198 161 -267 hhcurveto
            -270 -190 -148 -212 -165 99 -100 246 -98 hvcurveto
            130 -51 rlineto
            201 -80 85 -89 -142 vvcurveto
            -211 -176 -140 -259 -274 -192 151 223 -11 vhcurveto
            return
          </CharString>
          <CharString index="6">
            rmoveto
            -775 -24 callsubr
            739 49 callgsubr
            -740 -49 callsubr
            10 47 rlineto
            -826 -99 callsubr
            826 hlineto
            return
          </CharString>
          <CharString index="7">
            -371 rmoveto
            237 174 132 220 48 hvcurveto
            228 1059 rlineto
            -51 hlineto
            -70 -319 rlineto
            -4 hlineto
            200 -13 -145 134 -205 hhcurveto
            -297 -241 -291 -347 -254 150 -164 234 178 161 101 166 82 hvcurveto
            4 hlineto
            -60 -280 rlineto
            -192 -43 -154 -120 -208 hhcurveto
            -207 -132 108 126 -10 hvcurveto
            -50 hlineto
            -148 2 158 -131 234 hhcurveto
            52 416 rmoveto
            -212 -130 143 232 319 223 271 264 205 131 -146 -229 -330 -209 -260 -272 hvcurveto
            return
          </CharString>
          <CharString index="8">
            -97 callgsubr
            rlineto
            return
          </CharString>
          <CharString index="9">
            50 hlineto
            139 645 rlineto
            198 42 166 167 212 hhcurveto
            186 121 -112 -171 -25 -4 -35 -7 -38 hvcurveto
            -135 -629 rlineto
            48 hlineto
            139 640 rlineto
            7 37 2 35 25 vvcurveto
            186 -140 132 -207 -175 -134 -95 -137 -79 vhcurveto
            -4 hlineto
            133 620 -10 callsubr
            return
          </CharString>
          <CharString index="10" raw="1">
            e30af93e ca0afd3d 2a1d15f9 3d0695b9
            05fd3e06 f7f95d47 1d0b 
          </CharString>
          <CharString index="11">
            rmoveto
            50 hlineto
            1 0 0 1 vvcurveto
            283 -4 -209 205 -318 hhcurveto
            -412 -313 -389 -509 -349 226 -236 334 284 222 154 258 88 hvcurveto
            -54 hlineto
            -229 -83 -200 -136 -253 hhcurveto
            -308 -206 218 326 473 295 372 376 294 187 -186 -255 4 hvcurveto
            -1 0 0 -1 vvcurveto
            return
          </CharString>
          <CharString index="12">
            hmoveto
            50 hlineto
            138 645 rlineto
            198 42 168 167 211 hhcurveto
            186 118 -111 -163 -33 -6 -35 -8 -39 hvcurveto
            -134 -629 75 callsubr
            640 rlineto
            8 37 3 35 33 vvcurveto
            179 -138 132 -205 -176 -136 -97 -141 -81 vhcurveto
            -4 hlineto
            47 222 -11 callgsubr
            return
          </CharString>
          <CharString index="13">
            -98 callgsubr
            endchar
          </CharString>
          <CharString index="14">
            -16 rmoveto
            205 166 98 156 58 hvcurveto
            -51 hlineto
            -132 -61 -137 -76 -176 hhcurveto
            -221 -140 147 222 38 6 52 6 41 hvcurveto
            850 hlineto
            8 38 6 35 50 vvcurveto
            227 -161 176 -222 -182 -165 -106 -170 -91 vhcurveto
            -4 hlineto
            166 -4 -122 110 -206 hhcurveto
            -219 -169 -122 -185 -36 hvcurveto
            51 hlineto
            158 32 147 103 192 hhcurveto
            180 109 -89 -147 -26 -4 -29 -7 -30 hvcurveto
            -23 -110 -385 -20 rlineto
            -275 -14 -154 -102 -192 vvcurveto
            -156 132 -111 191 174 222 100 227 81 vhcurveto
            3 hlineto
            -198 32 150 -129 214 hhcurveto
            -336 590 rmoveto
            268 63 193 168 213 hhcurveto
            196 141 -157 -201 -40 -4 -22 -3 -16 hvcurveto
            -1333 -544 rmoveto
            -167 -113 92 133 162 134 84 246 14 hvcurveto
            377 21 -38 -175 rlineto
            -186 -41 -190 -145 -208 hhcurveto
            return
          </CharString>
          <CharString index="15">
            35 80 hmoveto
            50 hlineto
            137 632 rlineto
            425 hlineto
            39 hlineto
            242 -632 rlineto
            53 hlineto
            -244 638 rlineto
            269 34 168 165 244 vvcurveto
            218 -152 144 -281 vhcurveto
            -394 hlineto
            40 -47 rmoveto
            351 hlineto
            253 133 -126 -193 -237 -192 -161 -278 hvcurveto
            -422 hlineto
            return
          </CharString>
          <CharString index="16">
            rmoveto
            -300 -227 -275 -361 -260 163 -176 248 196 158 108 178 72 hvcurveto
            -51 hlineto
            -146 -63 -143 -94 -169 hhcurveto
            -215 -146 157 235 331 208 257 269 184 133 -115 -170 21 hvcurveto
            49 hlineto
            1 0 -1 1 vvcurveto
            196 -21 -153 134 -213 hhcurveto
            return
          </CharString>
          <CharString index="17">
            rmoveto
            -306 -26 callsubr
            453 hlineto
            518 335 373 515 337 -203 218 -372 hvcurveto
            -383 -47 rmoveto
            377 hlineto
            350 181 -196 -318 -481 -318 -354 -485 hvcurveto
            -391 hlineto
            return
          </CharString>
          <CharString index="18">
            329 1411 844 rmoveto
            -458 -301 -359 -382 -307 -198 221 351 457 301 362 383 306 198 -225 -349 vhcurveto
            50 -1 rmoveto
            184 -57 160 -96 105 vhcurveto
            4 vlineto
            -16 29 47 -12 34 hhcurveto
            109 69 68 124 25 hvcurveto
            26 127 -11 callgsubr
            -24 -116 rlineto
            -98 -20 -52 -60 -84 -158 -63 152 -290 hhcurveto
            -412 -322 -380 -486 -379 218 -240 336 412 322 378 485 hvcurveto
            return
          </CharString>
          <CharString index="19">
            24 1070 623 rmoveto
            96 -21 91 -50 74 vhcurveto
            4 vlineto
            -14 22 36 -7 27 hhcurveto
            93 61 61 120 24 hvcurveto
            25 116 -11 callgsubr
            -20 -101 rlineto
            -113 -23 -47 -40 -70 -136 -48 146 -241 hhcurveto
            -310 -223 -286 -353 -263 164 -170 251 309 226 280 359 hvcurveto
            -901 -205 rmoveto
            325 203 267 279 224 145 -150 -238 -331 -204 -261 -278 -223 -146 147 241 vhcurveto
            return
          </CharString>
          <CharString index="20">
            hmoveto
            337 231 166 260 185 -125 107 -166 21 hvcurveto
            1 4 rlineto
            202 27 160 164 194 vvcurveto
            183 -128 132 -231 vhcurveto
            -466 -99 callsubr
            347 88 callsubr
            418 hlineto
            209 108 -110 -166 -200 -193 -156 -226 hvcurveto
            -450 hlineto
            -153 -719 rmoveto
            143 673 rlineto
            444 hlineto
            203 159 -97 -199 -220 -207 -157 -305 hvcurveto
            return
          </CharString>
          <CharString index="21">
            rmoveto
            91 73 75 91 91 -73 73 -90 -91 -74 -74 -92 -90 74 -74 90 hvcurveto
            39 vmoveto
            -71 -54 55 71 71 54 56 72 71 53 -56 -70 1 hvcurveto
            -71 -55 -56 -71 vhcurveto
            endchar
          </CharString>
          <CharString index="22">
            266 643 -20 rmoveto
            422 329 386 502 6 hvcurveto
            356 6 -219 239 -334 hhcurveto
            -307 -233 -175 -297 -88 hvcurveto
            53 hlineto
            272 88 206 153 279 hhcurveto
            338 205 -270 -381 -49 hvcurveto
            -756 43 callsubr
            760 hlineto
            -404 -62 -287 -287 -345 hhcurveto
            -254 -197 170 231 -13 hvcurveto
            -51 hlineto
            -258 14 217 -190 282 hhcurveto
            return
          </CharString>
          <CharString index="23">
            rmoveto
            43 hlineto
            318 -1 callgsubr
            -64 hlineto
            -270 -244 rlineto
            -2 hlineto
            -165 244 rlineto
            -56 hlineto
            endchar
          </CharString>
          <CharString index="24">
            133 629 699 814 rlineto
            -63 hlineto
            -651 -758 rlineto
            -4 hlineto
            -331 758 rlineto
            -54 hlineto
            354 -811 -134 -632 rlineto
            return
          </CharString>
          <CharString index="25">
            rmoveto
            -46 hlineto
            -116 -8 -89 -78 -122 hhcurveto
            -125 -76 63 100 11 1 9 1 11 hvcurveto
            -46 hlineto
            -1 -12 -1 -11 -11 vvcurveto
            -123 95 -80 147 151 110 97 140 9 vhcurveto
            return
          </CharString>
          <CharString index="26">
            rmoveto
            359 -1 callgsubr
            -70 hlineto
            -352 -287 rlineto
            endchar
          </CharString>
          <CharString index="27">
            -509 63 hmoveto
            50 hlineto
            66 callgsubr
            224 48 138 151 155 hhcurveto
            57 52 -13 -20 25 hvcurveto
            12 50 rlineto
            16 -28 -58 13 -53 hhcurveto
            -122 -102 -67 -139 -76 hvcurveto
            -4 hlineto
            41 191 -11 callgsubr
            return
          </CharString>
          <CharString index="28" raw="1">
            f991f920 f99115fb f606f724 f93a4b0a
            f72df962 05f7f806 f89afd76 15f82df7
            ddf810f8 93f7f0fb 65f788fb e2fc3ffb
            cafc29fc 7cfbf0f7 64fb86f7 e21ff944
            fa0d15fc 78fbcafb fafc0cfb c2fb54f7
            6df7def8 60f7baf8 12f81bf7 c3f754fb
            6dfbde1e 0b  
          </CharString>
          <CharString index="29">
            346 921 -16 rmoveto
            303 222 280 359 262 -163 171 -245 -262 -198 -211 -284 -52 hvcurveto
            -289 hlineto
            103 479 -10 callsubr
            72 callgsubr
            109 516 rlineto
            293 hlineto
            -3 -31 -2 -35 -33 vvcurveto
            -263 159 -170 247 vhcurveto
            3 46 rmoveto
            -219 -141 147 241 325 199 267 273 219 142 -150 -238 -331 -201 -261 -272 hvcurveto
            return
          </CharString>
          <CharString index="30">
            25 22 20 26 27 -22 20 -25 -26 -22 -20 -27 -26 22 -20 26 hvcurveto
            -36 -219 rmoveto
            -49 hlineto
            -246 -1152 rlineto
            -133 -27 -70 -59 -124 -32 callsubr
          </CharString>
          <CharString index="31">
            1341 rmoveto
            4 hlineto
            113 -1341 rlineto
            46 hlineto
            712 -28 callgsubr
            -54 hlineto
            -661 -1342 rlineto
            -4 hlineto
            -113 1342 rlineto
            -45 hlineto
            -680 -1342 rlineto
            -4 hlineto
            -90 1342 -11 callgsubr
            97 107 callgsubr
            return
          </CharString>
          <CharString index="32">
            rmoveto
            -1 -2 0 -12 -2 vvcurveto
            -122 95 -80 143 149 111 87 131 14 vhcurveto
            -46 hlineto
            -105 -13 -88 -70 -118 hhcurveto
            -122 -79 63 100 1 0 10 1 1 hvcurveto
            return
          </CharString>
          <CharString index="33">
            rmoveto
            -52 hlineto
            -319 -304 rlineto
            65 hlineto
            274 263 rlineto
            2 hlineto
            161 -263 rlineto
            57 hlineto
            return
          </CharString>
          <CharString index="34">
            rmoveto
            -503 hlineto
            -9 -44 rlineto
            503 hlineto
            endchar
          </CharString>
          <CharString index="35">
            hmoveto
            50 hlineto
            139 648 rlineto
            221 47 139 141 170 hhcurveto
            155 104 -103 -151 -33 -5 -54 -8 -37 hvcurveto
            -134 -632 rlineto
            49 hlineto
            137 642 rlineto
            228 48 138 140 174 hhcurveto
            154 104 -103 -151 -34 -6 -53 -8 -37 hvcurveto
            -134 -632 75 callsubr
            642 rlineto
            6 31 5 50 43 vvcurveto
            169 -125 121 -174 -167 -137 -114 -153 -53 vhcurveto
            -4 hlineto
            156 -11 -119 111 -165 hhcurveto
            -145 -112 -78 -147 -69 hvcurveto
            -4 hlineto
            44 209 -11 callgsubr
            return
          </CharString>
          <CharString index="36">
            rmoveto
            35 30 29 34 35 -30 29 -35 -34 -30 -29 108 callsubr
            endchar
          </CharString>
          <CharString index="37">
            hmoveto
            283 1329 rlineto
            4 hlineto
            303 -1328 rlineto
            52 hlineto
            866 1328 rlineto
            4 hlineto
            -283 -1329 rlineto
            60 callgsubr
            -59 hlineto
            -898 -1381 rlineto
            -4 hlineto
            -316 1381 rlineto
            -50 -99 callsubr
            return
          </CharString>
          <CharString index="38">
            rmoveto
            -312 80 callsubr
            131 601 rlineto
            385 hlineto
            343 235 180 286 218 -156 158 -263 hvcurveto
            -373 -47 rmoveto
            367 hlineto
            241 134 -141 -191 -260 -225 -156 -298 hvcurveto
            -381 hlineto
            return
          </CharString>
          <CharString index="39">
            340 673 794 rmoveto
            228 145 -120 -190 -260 -199 -177 -289 hvcurveto
            -413 hlineto
            159 747 rlineto
            -219 -794 rmoveto
            474 hlineto
            320 218 196 292 212 -168 140 -249 hvcurveto
            -366 hlineto
            128 603 -10 callsubr
            873 -1443 -68 callgsubr
            return
          </CharString>
          <CharString index="40">
            -80 callgsubr
            endchar
          </CharString>
          <CharString index="41">
            2 130 hmoveto
            113 535 293 253 459 -788 rlineto
            57 hlineto
            -479 820 716 623 rlineto
            -72 hlineto
            -952 -828 rlineto
            -4 hlineto
            176 828 rlineto
            -50 -99 callsubr
            return
          </CharString>
          <CharString index="42">
            101 741 672 rmoveto
            -240 -134 127 180 247 200 170 289 hvcurveto
            413 93 callgsubr
            -422 -45 rmoveto
            -1 14 14 -1 15 hhcurveto
            369 hlineto
            -133 -625 rlineto
            50 28 callgsubr
            -474 hlineto
            -327 -211 -198 -272 -171 115 -135 202 -33 hvcurveto
            -560 -634 rlineto
            64 hlineto
            return
          </CharString>
          <CharString index="43">
            rlineto
            -50 -99 callsubr
            50 hlineto
            return
          </CharString>
          <CharString index="44">
            -35 callsubr
            -139 -647 rlineto
            -73 -80 -159 -88 -225 hhcurveto
            -235 -147 156 267 57 hvcurveto
            82 385 -10 callsubr
            -82 -382 rlineto
            -293 -62 162 -180 271 hhcurveto
            235 152 88 55 65 hvcurveto
            3 hlineto
            -155 -731 rlineto
            return
          </CharString>
          <CharString index="45">
            rmoveto
            13 25 38 10 37 hhcurveto
            63 37 -33 -51 -53 -40 -40 -66 -22 hvcurveto
            22 -33 rlineto
            79 26 51 56 72 vvcurveto
            69 -58 50 -84 -33 -42 -10 -12 -19 vhcurveto
            endchar
          </CharString>
          <CharString index="46">
            -156 560 478 rmoveto
            -191 -85 74 148 166 136 129 247 hvcurveto
            276 hlineto
            -109 -517 rlineto
            -103 -478 rmoveto
            83 callgsubr
            -327 hlineto
            -281 -161 -143 -201 -149 87 -91 161 -19 hvcurveto
            -413 -437 rlineto
            65 hlineto
            406 432 rlineto
            3 3 0 4 hhcurveto
            274 hlineto
            return
          </CharString>
          <CharString index="47">
            90 422 187 142 374 -564 rlineto
            58 hlineto
            -391 591 596 449 rlineto
            -75 hlineto
            -730 -546 rlineto
            -4 hlineto
            202 949 rlineto
            -50 -99 callsubr
            return
          </CharString>
          <CharString index="48">
            rmoveto
            -43 hlineto
            -318 -287 rlineto
            65 hlineto
            269 244 rlineto
            2 hlineto
            167 -244 89 callgsubr
          </CharString>
          <CharString index="49">
            rmoveto
            65 -47 58 -73 23 vhcurveto
            1 2 rlineto
            96 15 66 70 87 vvcurveto
            88 -85 66 -114 -128 -97 -80 -106 -57 38 -50 61 -21 vhcurveto
            -2 vlineto
            -114 -14 -79 -79 -101 vvcurveto
            -102 92 -70 132 146 105 87 121 vhcurveto
            -250 -168 rmoveto
            -107 -68 55 85 91 85 70 113 103 76 -57 -76 -98 -84 -70 -118 hvcurveto
            72 339 rmoveto
            -94 -62 46 70 83 76 64 99 91 63 -48 -71 -82 -74 -62 -99 hvcurveto
            endchar
          </CharString>
          <CharString index="50">
            31 915 hmoveto
            -12 callsubr
            -622 -439 rmoveto
            176 89 -75 -146 -173 -142 -162 -244 hvcurveto
            -266 hlineto
            119 556 rlineto
            -178 -601 rmoveto
            319 hlineto
            278 164 177 207 167 -108 71 callgsubr
            84 394 -10 callsubr
            return
          </CharString>
          <CharString index="51">
            rmoveto
            1 2 2 11 12 vvcurveto
            114 -101 79 -141 -149 -113 -90 -128 -10 vhcurveto
            46 hlineto
            104 9 92 71 120 hhcurveto
            120 80 -62 -92 -10 -1 -10 -1 -1 hvcurveto
            endchar
          </CharString>
          <CharString index="52">
            -74 callsubr
            endchar
          </CharString>
          <CharString index="53">
            rmoveto
            -307 -206 rlineto
            73 hlineto
            251 168 rlineto
            3 hlineto
            181 -168 rlineto
            63 hlineto
            -220 206 rlineto
            return
          </CharString>
          <CharString index="54">
            rmoveto
            107 -85 80 -115 -90 -82 -49 -79 -40 vhcurveto
            -2 hlineto
            201 36 99 123 122 hhcurveto
            86 60 -51 -77 5 hvcurveto
            49 hlineto
            100 -4 -81 70 -110 hhcurveto
            -100 -88 -62 -112 -59 hvcurveto
            -44 -83 -25 -103 -94 vvcurveto
            -137 84 -91 128 145 111 112 145 vhcurveto
            -418 -55 rmoveto
            111 94 91 114 93 68 -65 -88 -117 -90 -92 -115 -96 -68 67 93 vhcurveto
            endchar
          </CharString>
          <CharString index="55">
            -77 callgsubr
            -83 360 rmoveto
            81 60 67 106 13 hvcurveto
            -44 hlineto
            -75 -7 -47 -55 -53 -99 -22 149 -119 hhcurveto
            -84 -68 -74 -99 -8 hvcurveto
            45 hlineto
            72 6 49 58 57 98 23 -149 119 hhcurveto
            endchar
          </CharString>
          <CharString index="56">
            897 951 rlineto
            5 hlineto
            -203 -951 rlineto
            49 68 callgsubr
            -897 -952 rlineto
            -5 hlineto
            203 952 -10 callsubr
            -222 -1040 rlineto
            return
          </CharString>
          <CharString index="57">
            129 hmoveto
            50 hlineto
            212 995 rlineto
            250 hlineto
            9 45 rlineto
            -250 hlineto
            32 152 rlineto
            130 28 80 70 110 hhcurveto
            37 31 -6 -9 26 hvcurveto
            10 46 rlineto
            8 -26 -40 6 -38 hhcurveto
            -137 -97 -82 -160 -33 hvcurveto
            -33 -155 rlineto
            -163 51 callgsubr
            163 hlineto
            return
          </CharString>
          <CharString index="58">
            hlineto
            -7 callgsubr
            776 hlineto
            return
          </CharString>
          <CharString index="59">
            rmoveto
            148 105 108 144 108 -85 79 -112 -62 -65 -27 -43 -38 hvcurveto
            -2 hlineto
            81 262 rlineto
            316 hlineto
            10 43 rlineto
            -358 hlineto
            -110 -358 rlineto
            13 35 0 1 hvcurveto
            46 36 67 36 65 hhcurveto
            97 65 -64 -90 -115 -88 -88 -116 -98 -67 61 75 hvcurveto
            1 0 2 1 vvcurveto
            -47 hlineto
            -2 0 -5 -3 vvcurveto
            -94 89 -78 121 vhcurveto
            endchar
          </CharString>
          <CharString index="60">
            rmoveto
            14 25 39 10 37 hhcurveto
            62 36 -33 -50 -53 -40 -43 -65 -21 hvcurveto
            22 -32 rlineto
            77 24 52 60 71 vvcurveto
            69 -57 49 -83 -34 -42 -10 -13 -20 vhcurveto
            -83 -207 -77 callgsubr
            endchar
          </CharString>
          <CharString index="61">
            71 callsubr
            -98 -462 rlineto
            -77 -82 -122 -58 -144 hhcurveto
            -206 -84 133 199 43 hvcurveto
            57 265 -10 callsubr
            -57 -268 rlineto
            -223 -48 112 -151 227 hhcurveto
            141 118 52 57 71 hvcurveto
            9 hlineto
            -108 -507 rlineto
            return
          </CharString>
          <CharString index="62">
            -51 callgsubr
            -778 hlineto
            -269 -986 rlineto
            -235 -64 -92 -184 -149 hhcurveto
            -31 -21 8 1 -1 hvcurveto
            -9 -47 rlineto
            1 20 -9 32 hhcurveto
            197 99 213 246 67 hvcurveto
            259 946 rlineto
            679 58 callsubr
          </CharString>
          <CharString index="63">
            rmoveto
            78 70 70 103 25 hvcurveto
            -43 hlineto
            -76 -17 -54 -57 -55 -95 8 152 -119 hhcurveto
            -80 -71 -70 -103 -22 hvcurveto
            42 hlineto
            75 17 56 58 53 96 -9 -152 120 hhcurveto
            return
          </CharString>
          <CharString index="64">
            267 621 -20 rmoveto
            374 329 298 460 64 hvcurveto
            434 61 -161 291 -410 hhcurveto
            -246 -237 -140 -210 -116 hvcurveto
            51 hlineto
            188 117 211 114 213 hhcurveto
            383 136 -268 -409 -52 hvcurveto
            -2 -2 -17 -1 -2 vhcurveto
            -1170 hlineto
            -1 -5 -8 -38 -5 vvcurveto
            -429 -85 185 -260 365 hhcurveto
            2 48 rmoveto
            -289 -147 169 287 59 7 62 14 65 hvcurveto
            1118 hlineto
            -385 -75 -305 -257 -323 hhcurveto
            return
          </CharString>
          <CharString index="65">
            1443 return
          </CharString>
          <CharString index="66">
            rmoveto
            148 111 87 129 15 hvcurveto
            -46 hlineto
            -103 -14 -88 78 callgsubr
            64 99 hvcurveto
            1 0 8 1 vvcurveto
            -45 hlineto
            -1 -1 0 -11 -1 vvcurveto
            -123 94 -80 144 vhcurveto
            endchar
          </CharString>
          <CharString index="67">
            88 callsubr
            -200 -939 rlineto
            -665 hlineto
            674 939 rlineto
            -107 -1397 rmoveto
            759 -3 callgsubr
            -709 hlineto
            142 670 rlineto
            673 49 callgsubr
            -673 hlineto
            114 callsubr
            rlineto
            709 -3 callgsubr
            -982 hlineto
            -1037 94 callgsubr
            294 411 rlineto
            688 hlineto
            return
          </CharString>
          <CharString index="68">
            rmoveto
            359 290 426 530 323 -163 204 -259 -358 -291 -427 -529 -323 163 -204 259 hvcurveto
            -370 527 rmoveto
            498 270 412 327 226 145 -188 -294 -497 -271 -412 -326 -227 -144 188 293 vhcurveto
            endchar
          </CharString>
          <CharString index="69">
            rmoveto
            -24 callgsubr
            13 callsubr
            hvcurveto
            490 229 21 callsubr
            -205 -186 rmoveto
            82 callgsubr
          </CharString>
          <CharString index="70">
            rmoveto
            81 63 58 90 14 hvcurveto
            -44 hlineto
            -63 -13 -42 -42 -56 -75 -47 117 -96 hhcurveto
            -80 -63 -58 -90 -15 hvcurveto
            45 hlineto
            63 12 42 42 56 76 47 -117 95 hhcurveto
            -164 -67 rmoveto
            -307 -205 rlineto
            73 hlineto
            251 167 rlineto
            3 hlineto
            181 -167 rlineto
            63 hlineto
            -220 205 rlineto
            endchar
          </CharString>
          <CharString index="71">
            rmoveto
            186 337 rlineto
            -58 hlineto
            -173 -337 rlineto
            endchar
          </CharString>
          <CharString index="72">
            -51 callgsubr
            -50 hlineto
            return
          </CharString>
          <CharString index="73">
            rmoveto
            -775 63 callgsubr
            -50 -99 callsubr
            825 hlineto
            return
          </CharString>
          <CharString index="74" raw="1">
            1c04db15 f85b0694 b705fc5b 06fb341c
            faf91599 0a  
          </CharString>
          <CharString index="75">
            -40 callgsubr
            endchar
          </CharString>
          <CharString index="76" raw="1">
            15f725f9 404b0af7 2df96305 9006f955
            fd6305ce 06fd77f9 859472fa 5ff95f05
            3e06fe32 fd40050b  
          </CharString>
          <CharString index="77">
            50 hlineto
            109 516 rlineto
            691 hlineto
            -110 -516 rlineto
            49 hlineto
            222 1040 -10 callsubr
            -102 -479 rlineto
            -690 hlineto
            103 479 -10 callsubr
            endchar
          </CharString>
          <CharString index="78">
            hlineto
            -27 callsubr
            return
          </CharString>
          <CharString index="79">
            30 -19 callgsubr
            return
          </CharString>
          <CharString index="80">
            221 1040 rlineto
            return
          </CharString>
          <CharString index="81">
            -1443 rlineto
            return
          </CharString>
          <CharString index="82">
            60 callgsubr
            -49 hlineto
            return
          </CharString>
          <CharString index="83">
            hlineto
            142 671 rlineto
            return
          </CharString>
          <CharString index="84" raw="1">
            15f792f7 7ff71cf7 61f7081f 5806fb47
            fb08fb66 fb06fb70 1bfc0efb 1ff7a1f8
            2cc71f8e 90b88c8c 1e1c0493 069093b1
            8f1af825 dafb59f7 99fbf81b fc15fbcc
            fbc0fc5e 4b1ffc51 4af73afb acf8221b
            fc6ef99a 1594b905 6e06fb11 50b4f1db
            b9eabbc1 1f5b0659 555f2a3a 1afb1bd9
            58f7231e d2b915f8 0ee1f7b1 f781f7d1
            1bf7aff7 3afb40fb a6558554 7f4f1f0e
          </CharString>
          <CharString index="85" raw="1">
            15a80694 b8056e06 fb1256bf d6f703d0
            dc9da01f 5e067776 473efb09 1afb00d1
            4df7261e a4b7200a 0e 
          </CharString>
          <CharString index="86">
            rmoveto
            -307 80 callsubr
            141 660 rlineto
            37 39 173 141 255 hhcurveto
            238 145 -154 -269 -57 hvcurveto
            -88 -415 rlineto
            50 hlineto
            90 423 rlineto
            279 59 -152 183 -276 hhcurveto
            -225 -163 -103 -59 -72 hvcurveto
            -3 hlineto
            153 720 rlineto
            endchar
          </CharString>
          <CharString index="87">
            30 29 callgsubr
            -30 25 return
          </CharString>
          <CharString index="88" raw="1">
            15f2f875 0559b41d f703f89c 059006f8
            92fc9c05 ce06fcb1 f8be866b f971f89a
            053e06fd 3cfc7505 0b 
          </CharString>
          <CharString index="89">
            341 1390 633 rmoveto
            171 -29 157 -46 79 vhcurveto
            -59 hlineto
            45 -69 40 -144 -197 vvcurveto
            -347 -146 -253 -201 -146 -81 90 163 35 4 40 9 42 vhcurveto
            66 312 -11 callgsubr
            -66 -315 rlineto
            -240 -52 -107 -127 -159 hhcurveto
            -144 -83 116 201 254 143 298 179 141 hvcurveto
            -61 hlineto
            -162 -128 -149 -293 -279 vvcurveto
            -229 96 -127 175 143 120 97 156 55 vhcurveto
            4 hlineto
            -156 2 103 -97 153 hhcurveto
            237 166 267 382 hvcurveto
            return
          </CharString>
          <CharString index="90">
            528 rmoveto
            243 1 -183 175 -252 hhcurveto
            -218 -195 -105 -197 -80 hvcurveto
            -5 hlineto
            467 65 219 306 323 hhcurveto
            205 152 -123 -183 7 hvcurveto
            51 hlineto
            207 -5 -174 145 -231 hhcurveto
            -479 -191 -584 -392 -1 hvcurveto
            -300 -1 191 -207 262 hhcurveto
            313 226 230 318 hvcurveto
            -439 372 rmoveto
            228 162 -156 -225 -1 hvcurveto
            -282 -208 -211 -278 -233 -168 191 239 1 vhcurveto
            248 231 196 266 vhcurveto
            endchar
          </CharString>
          <CharString index="91">
            543 rmoveto
            -224 -170 171 220 hvcurveto
            275 1 208 208 282 hhcurveto
            225 162 -167 -244 -267 -239 -196 -245 hvcurveto
            -444 388 rmoveto
            -245 190 -189 247 222 192 128 193 65 vhcurveto
            4 hlineto
            -513 -62 -224 -279 -332 hhcurveto
            -200 -143 121 186 -19 hvcurveto
            -51 hlineto
            -210 16 167 -143 226 hhcurveto
            570 112 720 296 1 hvcurveto
            288 1 -188 179 -248 hhcurveto
            -316 -229 -227 -305 -1 hvcurveto
            endchar
          </CharString>
          <CharString index="92">
            188 -137 144 -177 -105 -101 -52 -89 -70 vhcurveto
            -15 hlineto
            212 49 198 142 243 hhcurveto
            0 23 0 0 vhcurveto
            9 53 rlineto
            1 -9 -8 0 -25 hhcurveto
            -315 -241 -227 -298 -234 149 -172 205 188 139 141 191 hvcurveto
            return
          </CharString>
          <CharString index="93">
            26 865 728 rmoveto
            10 47 rlineto
            -155 hlineto
            -214 -135 87 165 211 177 179 262 217 130 -134 -180 -26 hvcurveto
            48 hlineto
            207 34 -153 153 -248 hhcurveto
            -296 -196 -207 -230 -160 100 -79 153 -30 hvcurveto
            -4 vlineto
            -294 -23 -164 -187 -224 vvcurveto
            -205 171 -134 251 248 244 169 208 44 vhcurveto
            -49 hlineto
            -179 -40 -223 -152 -222 hhcurveto
            -234 -139 120 173 220 168 189 372 hvcurveto
            return
          </CharString>
          <CharString index="94">
            rmoveto
            -57 -259 rlineto
            -10 -45 -5 -44 -39 vvcurveto
            -130 65 -82 156 vhcurveto
            30 hlineto
            9 45 rlineto
            -25 hlineto
            -123 -62 52 123 34 6 41 10 47 hvcurveto
            57 265 rlineto
            8 37 4 31 27 vvcurveto
            112 -65 34 -113 11 vhcurveto
            4 18 159 15 72 42 38 175 rlinecurve
            74 346 rlineto
            194 41 64 48 159 hhcurveto
            45 59 callgsubr
            -54 hlineto
            -191 -73 -56 -231 -50 hvcurveto
            -73 -334 rlineto
            -166 -36 -65 -40 -157 hhcurveto
            -19 -88 rlineto
            117 -10 62 -21 -103 vvcurveto
            -26 -4 -31 -8 -37 vhcurveto
            endchar
          </CharString>
          <CharString index="95">
            49 hlineto
            71 callsubr
            return
          </CharString>
          <CharString index="96">
            -211 384 -19 rmoveto
            227 160 121 166 70 hvcurveto
            -50 hlineto
            -131 -57 -140 -111 -201 hhcurveto
            -171 -98 76 141 156 154 113 228 hvcurveto
            169 59 callgsubr
            -169 hlineto
            -161 -91 74 117 163 154 97 177 190 87 -112 -140 2 hvcurveto
            49 hlineto
            161 1 -94 136 -231 hhcurveto
            -211 -174 -116 -192 -118 74 -66 102 -20 hvcurveto
            -1 -5 rlineto
            -161 -15 -154 -100 -179 vvcurveto
            -170 121 -91 189 vhcurveto
            return
          </CharString>
          <CharString index="97">
            rlineto
            -50 hlineto
            return
          </CharString>
          <CharString index="98">
            -35 514 -16 rmoveto
            238 205 131 181 61 hvcurveto
            -50 hlineto
            -155 -63 -178 -111 -211 hhcurveto
            -192 -123 90 135 168 129 91 231 hvcurveto
            145 -3 callgsubr
            -141 hlineto
            -173 -96 79 116 158 140 96 216 205 152 -105 -171 -5 hvcurveto
            49 hlineto
            204 2 -165 118 -232 hhcurveto
            -251 -163 -118 -199 -98 73 -82 102 -15 hvcurveto
            -3 vlineto
            -173 -26 -106 -105 -156 vvcurveto
            -170 143 -100 221 vhcurveto
            return
          </CharString>
          <CharString index="99">
            50 68 callgsubr
            81 6 callsubr
            return
          </CharString>
          <CharString index="100">
            111 888 -339 rmoveto
            49 hlineto
            209 977 rlineto
            8 37 3 36 33 vvcurveto
            180 -137 132 -206 -176 -136 -99 -139 -82 vhcurveto
            -4 hlineto
            15 69 4 27 19 vvcurveto
            80 -1 -43 36 -88 hhcurveto
            -27 -31 -5 -5 -12 hvcurveto
            -9 -45 rlineto
            6 18 23 4 30 hhcurveto
            67 22 -26 -60 -19 -3 -21 -5 -25 hvcurveto
            -182 -853 rlineto
            50 hlineto
            138 644 rlineto
            199 43 166 166 213 hhcurveto
            185 118 -111 -163 -33 -5 -35 -8 -38 hvcurveto
            return
          </CharString>
          <CharString index="101">
            -25 -24 -29 -29 25 -24 return
          </CharString>
          <CharString index="102">
            rmoveto
            128 80 113 142 24 hvcurveto
            -47 hlineto
            -109 -20 -63 -100 -100 -137 -51 235 -161 hhcurveto
            -130 -88 -121 -134 -19 hvcurveto
            48 hlineto
            107 19 67 102 101 136 50 -235 163 hhcurveto
            -101 -356 rmoveto
            128 80 113 142 24 hvcurveto
            -47 hlineto
            -109 -20 -63 -100 -100 -137 -51 235 -161 hhcurveto
            -130 -88 -121 -135 -19 hvcurveto
            48 hlineto
            108 19 67 102 101 136 50 -235 163 hhcurveto
            endchar
          </CharString>
          <CharString index="103">
            514 rmoveto
            227 -192 164 -248 -119 -94 -36 -55 -76 vhcurveto
            -11 1 42 52 22 26 61 59 rlinecurve
            505 491 rlineto
            -68 hlineto
            -468 -458 rlineto
            -232 -227 -100 -182 -192 vvcurveto
            -229 179 -176 260 309 230 240 295 vhcurveto
            -447 345 rmoveto
            231 165 -144 -206 -266 -207 -217 -278 -239 -153 157 208 262 208 206 273 hvcurveto
            endchar
          </CharString>
          <CharString index="104">
            547 hlineto
            9 47 rlineto
            -494 hlineto
            1 4 rlineto
            384 133 227 322 392 vvcurveto
            339 -221 226 -337 -466 -300 -394 -429 -282 110 -178 254 -129 vhcurveto
            -1 -4 rlineto
            -452 hlineto
            -9 -47 rlineto
            503 hlineto
            16 75 rlineto
            -262 126 -109 167 274 vvcurveto
            401 287 373 426 304 207 -215 -315 -384 -249 -316 -359 -111 vhcurveto
            endchar
          </CharString>
          <CharString index="105">
            rmoveto
            206 hlineto
            8 40 rlineto
            -206 hlineto
            47 222 rlineto
            -43 hlineto
            -46 -222 rlineto
            -206 hlineto
            -9 -40 rlineto
            206 hlineto
            -48 -228 rlineto
            42 hlineto
            endchar
          </CharString>
          <CharString index="106">
            rmoveto
            10 45 rlineto
            -647 41 callgsubr
            212 995 rlineto
            return
          </CharString>
          <CharString index="107">
            297 99 callgsubr
            return
          </CharString>
          <CharString index="108">
            rmoveto
            -187 303 rlineto
            -53 hlineto
            191 -303 rlineto
            return
          </CharString>
          <CharString index="109">
            -96 callgsubr
            endchar
          </CharString>
          <CharString index="110">
            rmoveto
            35 29 29 34 35 -29 28 -35 -34 -30 -28 108 callsubr
            314 374 -73 callsubr
          </CharString>
          <CharString index="111">
            80 878 45 rmoveto
            -711 hlineto
            1 5 87 75 53 144 50 160 rlinecurve
            53 172 65 231 43 163 rrcurveto
            561 hlineto
            -1082 -1270 rmoveto
            59 275 rlineto
            985 hlineto
            -59 -275 rlineto
            49 hlineto
            82 callsubr
            212 995 rlineto
            -656 hlineto
            -45 -172 -71 -254 -56 -179 -56 -185 -66 -152 -90 -53 rrcurveto
            -81 hlineto
            -68 -320 rlineto
            endchar
          </CharString>
          <CharString index="112">
            rmoveto
            59 hlineto
            306 304 rlineto
            -64 hlineto
            -550 -304 rmoveto
            59 hlineto
            306 304 rlineto
            -64 hlineto
            endchar
          </CharString>
          <CharString index="113">
            219 12 callgsubr
            return
          </CharString>
          <CharString index="114">
            1073 rmoveto
            51 hlineto
            201 40 173 143 208 hhcurveto
            200 151 -129 -174 -154 -72 -97 -324 -279 hvcurveto
            -630 -541 -9 -43 rlineto
            921 -3 callgsubr
            -842 hlineto
            1 4 579 497 rlineto
            339 291 77 107 171 vvcurveto
            195 -175 151 -224 -237 -193 -159 -231 -44 vhcurveto
            endchar
          </CharString>
          <CharString index="115">
            rmoveto
            359 -1 callgsubr
            -69 hlineto
            -353 -287 rlineto
            -192 hmoveto
            359 -1 callgsubr
            -69 hlineto
            -353 -287 rlineto
            endchar
          </CharString>
          <CharString index="116">
            rmoveto
            234 185 162 229 156 -107 102 -183 hvcurveto
            -284 hlineto
            84 392 -10 callsubr
            -145 -682 rlineto
            -8 -39 -4 -35 -33 vvcurveto
            -161 98 -91 180 vhcurveto
            118 603 rmoveto
            163 87 -82 -135 -183 -148 -157 -212 -153 -82 78 141 30 4 34 8 37 hvcurveto
            50 237 rlineto
            endchar
          </CharString>
          <CharString index="117">
            -104 callgsubr
            endchar
          </CharString>
          <CharString index="118">
            hmoveto
            14 callsubr
          </CharString>
          <CharString index="119">
            rmoveto
            28 24 24 28 29 -24 24 -28 -29 -24 -24 -29 -28 24 -22 callgsubr
            return
          </CharString>
          <CharString index="120">
            29 25 24 29 65 callgsubr
            return
          </CharString>
          <CharString index="121">
            -98 callsubr
            endchar
          </CharString>
          <CharString index="122">
            -77 callgsubr
            -15 251 36 callsubr
            endchar
          </CharString>
          <CharString index="123">
            74 995 hmoveto
            -63 callsubr
            return
          </CharString>
          <CharString index="124">
            92 callsubr
            -10 -46 rlineto
            1046 373 92 callsubr
            -9 -46 rlineto
            endchar
          </CharString>
          <CharString index="125">
            -24 callgsubr
            hvcurveto
            return
          </CharString>
          <CharString index="126">
            hmoveto
            49 hlineto
            81 379 rlineto
            237 hlineto
            9 47 rlineto
            -236 hlineto
            217 1024 rlineto
            -69 hlineto
            -697 -718 -101 -108 -169 -198 -9 -47 rcurveline
            768 hlineto
            -691 51 rmoveto
            159 187 67 74 675 695 rrcurveto
            4 hlineto
            -204 -960 rlineto
            -702 hlineto
            endchar
          </CharString>
          <CharString index="127">
            hmoveto
            152 715 rlineto
            705 hlineto
            11 47 rlineto
            -706 hlineto
            66 callgsubr
            767 -3 callgsubr
            -817 -99 callsubr
            return
          </CharString>
          <CharString index="128">
            rmoveto
            -581 hlineto
            -10 -43 rlineto
            582 hlineto
            return
          </CharString>
          <CharString index="129">
            94 576 hmoveto
            861 -28 callgsubr
            -58 hlineto
            -816 -1371 rlineto
            -4 hlineto
            -234 1371 rlineto
            -48 hlineto
            246 -26 callsubr
            return
          </CharString>
          <CharString index="130">
            rmoveto
            35 30 28 35 34 -30 29 -35 -34 -30 -29 -34 -35 30 -28 34 hvcurveto
            349 332 21 callsubr
            endchar
          </CharString>
          <CharString index="131">
            hlineto
            -69 -325 rlineto
            return
          </CharString>
          <CharString index="132">
            52 hlineto
            443 619 9 45 rlineto
            -423 hlineto
            -10 -43 rlineto
            372 hlineto
            -1 -2 rlineto
            endchar
          </CharString>
          <CharString index="133">
            rmoveto
            14 hlineto
            171 93 79 174 38 hvcurveto
            23 108 -10 callsubr
            -22 -102 rlineto
            -148 return
          </CharString>
          <CharString index="134">
            203 rlineto
            -63 hlineto
            187 -203 rlineto
            return
          </CharString>
          <CharString index="135">
            rlineto
            49 hlineto
            80 374 rlineto
            92 86 138 66 132 hhcurveto
            163 94 -100 -163 -248 -186 -217 -224 -39 -39 3 6 -17 hvcurveto
            -10 -46 rlineto
            -6 17 39 -4 42 hhcurveto
            252 216 228 287 185 -111 121 return
          </CharString>
          <CharString index="136">
            hmoveto
            200 942 rlineto
            5 hlineto
            263 -940 rlineto
            44 hlineto
            651 940 rlineto
            4 hlineto
            -201 -942 rlineto
            83 callgsubr
            -61 hlineto
            -676 -977 rlineto
            -3 hlineto
            -272 977 rlineto
            -53 106 callsubr
          </CharString>
          <CharString index="137">
            rmoveto
            90 74 74 90 91 -74 73 -90 -90 -74 -74 -91 -90 74 -73 90 hvcurveto
            38 vmoveto
            -71 -54 55 70 71 54 55 71 71 54 -55 -70 -70 -54 -56 -71 hvcurveto
            200 518 rmoveto
            -185 -162 rlineto
            60 hlineto
            191 162 rlineto
            endchar
          </CharString>
          <CharString index="138">
            -90 callsubr
            endchar
          </CharString>
          <CharString index="139">
            37 callgsubr
            205 190 rmoveto
            86 callgsubr
            276 hmoveto
            86 callgsubr
            endchar
          </CharString>
          <CharString index="140">
            1040 rmoveto
            -827 51 callgsubr
            389 hlineto
            -212 -995 rlineto
            50 hlineto
            212 995 rlineto
            388 hlineto
            endchar
          </CharString>
          <CharString index="141">
            rmoveto
            13 callsubr
            -30 -6 callsubr
            30 hvcurveto
            277 hmoveto
            30 25 24 29 -19 callgsubr
            -30 18 callsubr
            58 -165 -73 callsubr
          </CharString>
          <CharString index="142" raw="1">
            fba2f7d8 b21d  
          </CharString>
          <CharString index="143">
            rmoveto
            58 hlineto
            320 309 rlineto
            -64 hlineto
            return
          </CharString>
          <CharString index="144">
            rmoveto
            10 46 rlineto
            -966 hlineto
            -9 -46 rlineto
            630 575 rmoveto
            458 hlineto
            9 45 rlineto
            -458 hlineto
            74 344 -10 callsubr
            -73 -344 rlineto
            -458 51 callgsubr
            458 hlineto
            -78 -367 rlineto
            49 hlineto
            endchar
          </CharString>
          <CharString index="145">
            hmoveto
            -50 callgsubr
            endchar
          </CharString>
          <CharString index="146">
            rmoveto
            29 24 24 29 29 -24 24 -29 -29 -24 -24 -29 -29 24 -22 callgsubr
            return
          </CharString>
          <CharString index="147">
            30 callgsubr
            71 332 rlineto
            -186 43 callsubr
            137 hlineto
            return
          </CharString>
          <CharString index="148">
            rmoveto
            45 hlineto
            306 206 rlineto
            -73 hlineto
            -251 -168 rlineto
            -2 hlineto
            -182 168 rlineto
            -63 hlineto
            313 76 rmoveto
            38 33 31 39 39 -33 32 -38 -39 -32 -32 -39 -39 32 -31 39 hvcurveto
            endchar
          </CharString>
          <CharString index="149">
            rmoveto
            52 hlineto
            341 293 rlineto
            -66 hlineto
            -296 -254 rlineto
            -2 hlineto
            -188 254 rlineto
            -57 hlineto
            328 74 rmoveto
            34 30 29 35 34 -30 29 -34 -35 -30 -29 -34 -35 30 -29 35 hvcurveto
            endchar
          </CharString>
          <CharString index="150">
            hlineto
            -10 -47 rlineto
            return
          </CharString>
          <CharString index="151">
            -90 callgsubr
            endchar
          </CharString>
          <CharString index="152">
            -304 rlineto
            endchar
          </CharString>
          <CharString index="153">
            rmoveto
            72 -139 32 -256 -236 vvcurveto
            -418 -187 -418 -287 -275 vhcurveto
            60 hlineto
            278 272 185 408 438 vvcurveto
            231 -27 237 -74 156 vhcurveto
            endchar
          </CharString>
          <CharString index="154">
            90 72 178 41 hvcurveto
            25 111 -10 callsubr
            -22 -102 rlineto
            -150 return
          </CharString>
          <CharString index="155">
            193 427 rlineto
            -52 hlineto
            -185 -427 rlineto
            endchar
          </CharString>
          <CharString index="156">
            hlineto
            255 203 rlineto
            -68 hlineto
            return
          </CharString>
          <CharString index="157">
            -1312 -101 callgsubr
          </CharString>
          <CharString index="158">
            -337 rmoveto
            -11 -21 -33 -6 -32 hhcurveto
            -75 -57 42 77 106 104 83 86 47 hvcurveto
            -44 6 rlineto
            -109 -56 -87 -87 -106 vvcurveto
            -104 81 -53 88 31 35 7 11 24 vhcurveto
            endchar
          </CharString>
          <CharString index="159">
            rmoveto
            39 31 -255 323 397 327 -30 37 -396 -326 -256 324 -39 -31 256 -326 -396 -326 31 -37 395 327 rlineto
            endchar
          </CharString>
          <CharString index="160">
            -285 rmoveto
            52 hlineto
            172 321 108 callgsubr
            return
          </CharString>
          <CharString index="161">
            rmoveto
            461 -3 callgsubr
            -461 hlineto
            102 475 rlineto
            -48 hlineto
            -102 -475 rlineto
            -461 hlineto
            -9 -47 rlineto
            460 hlineto
            -105 -497 rlineto
            48 hlineto
            endchar
          </CharString>
          <CharString index="162">
            rmoveto
            11 46 rlineto
            -901 hlineto
            -11 -46 rlineto
            66 292 rmoveto
            -10 -48 987 364 10 45 -817 365 -13 -54 759 -334 -2 -6 rlineto
            endchar
          </CharString>
          <CharString index="163">
            hmoveto
            50 3 callgsubr
            -196 -103 -148 -84 -107 -62 -12 -60 rcurveline
            157 90 160 91 129 66 rrcurveto
            4 hlineto
            endchar
          </CharString>
          <CharString index="164">
            -307 -1443 rlineto
            50 63 callgsubr
            return
          </CharString>
          <CharString index="165">
            -6 callgsubr
            endchar
          </CharString>
          <CharString index="166">
            478 85 callsubr
            -227 -445 rlineto
            50 hlineto
            229 445 rlineto
            return
          </CharString>
          <CharString index="167">
            rmoveto
            -20 callgsubr
            endchar
          </CharString>
          <CharString index="168">
            -1396 rlineto
            -927 63 callgsubr
            -50 -99 callsubr
            1168 hlineto
            -61 -285 rlineto
            endchar
          </CharString>
          <CharString index="169" raw="1">
            9b155c06 4bfbc105 ba060b 
          </CharString>
          <CharString index="170">
            hlineto
            9 46 rlineto
            return
          </CharString>
          <CharString index="171">
            -49 callgsubr
            endchar
          </CharString>
          <CharString index="172">
            575 158 rmoveto
            -284 402 2 7 462 411 rlineto
            -70 hlineto
            -460 -406 -1 -7 289 -407 rlineto
            return
          </CharString>
          <CharString index="173">
            -249 vhcurveto
            200 -200 rmoveto
            -93 -58 78 122 219 115 179 137 91 107 callsubr
            return
          </CharString>
          <CharString index="174">
            rmoveto
            650 hlineto
            10 46 rlineto
            -650 hlineto
            endchar
          </CharString>
          <CharString index="175">
            3 95 callgsubr
            48 hlineto
            return
          </CharString>
          <CharString index="176">
            682 709 706 734 rlineto
            -60 hlineto
            return
          </CharString>
          <CharString index="177">
            -78 -122 -219 -115 -179 return
          </CharString>
          <CharString index="178">
            -27 callsubr
            -49 hlineto
            return
          </CharString>
          <CharString index="179">
            hlineto
            182 -304 rlineto
            return
          </CharString>
          <CharString index="180">
            rmoveto
            667 -533 -1 -4 -896 -537 -12 -61 958 574 10 43 -715 575 rlineto
            endchar
          </CharString>
          <CharString index="181">
            hmoveto
            54 hlineto
            993 1393 11 50 rlineto
            -907 43 callsubr
            849 hlineto
            -1 -4 rlineto
            endchar
          </CharString>
          <CharString index="182">
            rlineto
            50 hlineto
            137 return
          </CharString>
          <CharString index="183">
            262 211 130 -151 -244 return
          </CharString>
          <CharString index="184">
            hmoveto
            -226 -445 rlineto
            50 hlineto
            228 445 rlineto
            return
          </CharString>
          <CharString index="185">
            -271 -101 callgsubr
          </CharString>
          <CharString index="186">
            -285 rmoveto
            53 hlineto
            167 319 2 11 rlineto
            return
          </CharString>
          <CharString index="187">
            -26 callsubr
            50 hlineto
            return
          </CharString>
          <CharString index="188" raw="1">
            fbfd15a8 06f74ce6 d3f746b3 1fa4f703
            801d0b   
          </CharString>
          <CharString index="189">
            68 320 rlineto
            -173 hlineto
            return
          </CharString>
          <CharString index="190" raw="1">
            a91dd1f7 e005fb83 b60af753 060b
          </CharString>
          <CharString index="191">
            -29 -25 -24 -29 -30 25 -23 29 return
          </CharString>
          <CharString index="192">
            -42 callsubr
            rmoveto
            return
          </CharString>
          <CharString index="193">
            rmoveto
            902 1742 -11 callgsubr
            -903 -1742 rlineto
            endchar
          </CharString>
          <CharString index="194">
            426 rlineto
            -52 hlineto
            -185 -426 rlineto
            return
          </CharString>
          <CharString index="195">
            1397 rmoveto
            return
          </CharString>
          <CharString index="196" raw="1">
            fbb7c8f8 9f15f91b ca0afd1b 060b
          </CharString>
          <CharString index="197">
            hvcurveto
            220 1 162 165 214 hhcurveto
            203 160 return
          </CharString>
          <CharString index="198">
            hlineto
            298 99 callgsubr
            -51 -6 callgsubr
            return
          </CharString>
          <CharString index="199">
            rmoveto
            9 46 rlineto
            -966 hlineto
            return
          </CharString>
          <CharString index="200">
            -63 -150 hhcurveto
            -27 hlineto
            return
          </CharString>
          <CharString index="201">
            167 -108 95 return
          </CharString>
          <CharString index="202">
            -1040 rlineto
            49 hlineto
            return
          </CharString>
          <CharString index="203">
            -1362 rlineto
            return
          </CharString>
          <CharString index="204">
            rmoveto
            1179 hlineto
            10 46 rlineto
            -1179 hlineto
            endchar
          </CharString>
          <CharString index="205" raw="1">
            05f89d06 0b  
          </CharString>
          <CharString index="206">
            1632 37 callgsubr
            return
          </CharString>
          <CharString index="207">
            hmoveto
            49 -29 callsubr
            return
          </CharString>
          <CharString index="208">
            hlineto
            88 355 rlineto
            return
          </CharString>
          <CharString index="209">
            -29 25 -22 callgsubr
            276 hmoveto
            29 25 24 29 return
          </CharString>
          <CharString index="210">
            rmoveto
            46 hlineto
            -51 1742 rlineto
            -47 hlineto
            endchar
          </CharString>
          <CharString index="211">
            -25 callsubr
            endchar
          </CharString>
          <CharString index="212">
            rmoveto
            350 197 -266 198 rlineto
            endchar
          </CharString>
          <CharString index="213">
            hlineto
            -222 -1040 rlineto
            endchar
          </CharString>
          <CharString index="214">
            59 -78 -122 -219 return
          </CharString>
          <CharString index="215">
            -35 -34 30 -29 34 hvcurveto
            return
          </CharString>
          <CharString index="216">
            hvcurveto
            4 hlineto
            -54 return
          </CharString>
          <CharString index="217">
            hlineto
            59 279 rlineto
            -47 hlineto
            -59 -279 rlineto
            return
          </CharString>
          <CharString index="218">
            rmoveto
            84 395 -350 -198 rlineto
            endchar
          </CharString>
          <CharString index="219">
            hlineto
            -95 -448 rlineto
            127 411 rmoveto
            return
          </CharString>
          <CharString index="220">
            92 callgsubr
            14 64 rmoveto
            return
          </CharString>
          <CharString index="221">
            134 633 return
          </CharString>
        <CharString name=".notdef">
          941 -56 -494 109 callgsubr
          355 rlineto
          -1847 hlineto
          13 63 109 callgsubr
          113 callsubr
          1848 hlineto
          75 113 callsubr
          1847 hlineto
          76 113 callsubr
          1847 hlineto
          76 92 callgsubr
          13 63 109 callgsubr
          355 rlineto
          -1847 hlineto
          endchar
        </CharString>
        <CharString name=".null">
          endchar
        </CharString>
        <CharString name="A">
          94 844 -103 callsubr
          endchar
        </CharString>
        <CharString name="AE">
          725 1220 -40 callsubr
          endchar
        </CharString>
        <CharString name="AEacute">
          725 1220 -40 callsubr
          504 1143 -81 callsubr
        </CharString>
        <CharString name="AEmacron">
          725 1220 -40 callsubr
          791 1248 -75 callgsubr
        </CharString>
        <CharString name="Aacute">
          94 844 -103 callsubr
          -89 1052 -81 callsubr
        </CharString>
        <CharString name="Abreve">
          94 844 -103 callsubr
          -353 1269 -75 callsubr
          endchar
        </CharString>
        <CharString name="Abreveacute">
          94 844 -103 callsubr
          -159 1252 rmoveto
          65 49 callsubr
          -209 -404 -41 callsubr
        </CharString>
        <CharString name="Abrevedotbelow">
          94 844 -103 callsubr
          -353 1269 -75 callsubr
          -185 -2043 -101 callgsubr
        </CharString>
        <CharString name="Abrevegrave">
          94 844 -103 callsubr
          -33 1252 26 callgsubr
        </CharString>
        <CharString name="Abrevehookabove">
          94 844 -103 callsubr
          -238 1424 rmoveto
          12 24 44 11 37 hhcurveto
          63 37 -36 -48 -43 -24 -34 -45 -23 hvcurveto
          25 -32 rlineto
          58 31 33 49 61 vvcurveto
          64 -55 52 -85 -41 -42 -11 -11 -20 vhcurveto
          113 -415 -41 callsubr
        </CharString>
        <CharString name="Abrevetilde">
          94 844 -103 callsubr
          61 1320 rmoveto
          81 68 70 101 24 hvcurveto
          -49 hlineto
          -77 -18 -50 -51 -53 -93 7 147 -119 hhcurveto
          -80 -71 -71 -100 -22 hvcurveto
          49 hlineto
          77 18 52 51 51 93 -7 -147 119 hhcurveto
          -177 -269 -41 callsubr
        </CharString>
        <CharString name="Acaron">
          94 844 -103 callsubr
          -134 1052 -84 callsubr
        </CharString>
        <CharString name="Acircumflex">
          94 844 -103 callsubr
          -39 1339 -63 callgsubr
        </CharString>
        <CharString name="Acircumflexacute">
          10 callgsubr
          127 -5 rmoveto
          65 hlineto
          254 101 callgsubr
        </CharString>
        <CharString name="Acircumflexdotbelow">
          94 844 -103 callsubr
          -39 1339 -74 callgsubr
          -650 -1826 -101 callgsubr
        </CharString>
        <CharString name="Acircumflexgrave">
          10 callgsubr
          330 -5 rmoveto
          -182 27 callsubr
          endchar
        </CharString>
        <CharString name="Acircumflexhookabove">
          10 callgsubr
          80 134 rmoveto
          13 24 43 10 37 hhcurveto
          62 37 -30 -53 -42 -24 -34 -44 -23 hvcurveto
          24 -32 rlineto
          58 31 32 49 60 vvcurveto
          68 -57 47 -81 -41 -42 -11 -11 -19 vhcurveto
          endchar
        </CharString>
        <CharString name="Acircumflextilde">
          94 844 -103 callsubr
          65 1323 -37 callsubr
        </CharString>
        <CharString name="Acyrillic">
          104 849 -103 callsubr
          endchar
        </CharString>
        <CharString name="Adblgrave">
          94 844 -103 callsubr
          -270 1052 -45 callgsubr
          434 -287 -45 callgsubr
          endchar
        </CharString>
        <CharString name="Adieresis">
          94 844 -103 callsubr
          -233 1099 -105 callsubr
        </CharString>
        <CharString name="Adieresismacron">
          94 844 -103 callsubr
          -244 1157 -38 callsubr
        </CharString>
        <CharString name="Adotaccent">
          94 844 -103 callsubr
          -84 1152 -101 callgsubr
        </CharString>
        <CharString name="Adotbelow">
          94 844 -103 callsubr
          -492 -774 -101 callgsubr
        </CharString>
        <CharString name="Adotmacron">
          94 844 -103 callsubr
          -103 1054 23 callsubr
        </CharString>
        <CharString name="Agrave">
          94 844 -103 callsubr
          -153 1052 -45 callgsubr
          endchar
        </CharString>
        <CharString name="Ahookabove">
          94 844 -103 callsubr
          -245 1250 -62 callsubr
        </CharString>
        <CharString name="Ainvertedbreve">
          94 844 -103 callsubr
          152 1051 -56 callsubr
        </CharString>
        <CharString name="Alphagreek">
          94 844 -103 callsubr
          endchar
        </CharString>
        <CharString name="Alphatonosgreek">
          94 844 -103 callsubr
          -550 647 rmoveto
          46 hlineto
          165 294 115 callgsubr
        </CharString>
        <CharString name="Amacron">
          94 844 -103 callsubr
          198 1157 -75 callgsubr
        </CharString>
        <CharString name="Aogonek">
          94 1050 -327 rmoveto
          -8 -15 -25 -4 -28 hhcurveto
          -70 -51 45 59 91 88 77 180 63 hvcurveto
          1 1 -248 1446 rlineto
          -51 hlineto
          -861 -26 callsubr
          60 hlineto
          298 502 rlineto
          667 hlineto
          86 -490 rlineto
          -174 -59 -95 -90 -106 vvcurveto
          -81 65 -59 91 26 31 5 7 16 vhcurveto
          -198 1745 rmoveto
          4 hlineto
          141 -827 rlineto
          -634 hlineto
          endchar
        </CharString>
        <CharString name="Aring">
          94 844 -103 callsubr
          -79 1064 -86 callsubr
        </CharString>
        <CharString name="Aringacute">
          94 844 -103 callsubr
          -86 1025 30 callsubr
        </CharString>
        <CharString name="Aringbelow">
          94 844 -103 callsubr
          -502 -931 -86 callsubr
        </CharString>
        <CharString name="Atilde">
          94 844 -103 callsubr
          35 1051 -103 callgsubr
          endchar
        </CharString>
        <CharString name="B">
          62 572 -87 callsubr
          endchar
        </CharString>
        <CharString name="Bdotaccent">
          62 572 -87 callsubr
          250 1608 -101 callgsubr
        </CharString>
        <CharString name="Bdotbelow">
          62 572 -87 callsubr
          -98 -318 -101 callgsubr
        </CharString>
        <CharString name="Becyrillic">
          11 559 hmoveto
          327 211 201 277 194 -155 147 -262 hvcurveto
          -371 hlineto
          123 577 rlineto
          753 -3 callgsubr
          -803 -99 callsubr
          60 47 rmoveto
          154 725 rlineto
          375 hlineto
          239 134 -125 -175 -252 -200 -173 -289 hvcurveto
          endchar
        </CharString>
        <CharString name="Betagreek">
          62 572 -87 callsubr
          endchar
        </CharString>
        <CharString name="Blinebelow">
          62 572 -87 callsubr
          193 -270 -75 callgsubr
        </CharString>
        <CharString name="C">
          235 1375 973 -96 callsubr
          endchar
        </CharString>
        <CharString name="Cacute">
          235 1375 973 -96 callsubr
          -403 581 -81 callsubr
        </CharString>
        <CharString name="Ccaron">
          235 1375 973 -96 callsubr
          -448 581 -84 callsubr
        </CharString>
        <CharString name="Ccedilla">
          235 601 -143 rmoveto
          -8 -33 50 -5 rlineto
          90 -8 52 -39 -69 vvcurveto
          -78 -65 -43 -90 -66 -49 15 25 -42 vhcurveto
          -9 -44 rlineto
          -25 43 53 -16 69 hhcurveto
          119 85 64 106 90 -68 53 -115 9 hvcurveto
          80 121 rlineto
          283 222 154 258 88 hvcurveto
          -54 hlineto
          -229 -83 -200 -136 -253 hhcurveto
          -308 -206 218 326 473 295 372 376 294 187 -186 -255 4 hvcurveto
          -1 0 0 -1 vvcurveto
          50 hlineto
          1 0 0 1 vvcurveto
          283 -4 -209 205 -318 hhcurveto
          -412 -313 -389 -509 -333 206 -230 309 -21 hvcurveto
          endchar
        </CharString>
        <CharString name="Ccedillaacute">
          235 1331 1841 rmoveto
          -70 hlineto
          -352 -287 rlineto
          63 hlineto
          -371 -1697 rmoveto
          -8 -33 50 -5 rlineto
          90 -8 52 -39 -69 vvcurveto
          -78 -65 -43 -90 -66 -49 15 25 -42 vhcurveto
          -9 -44 rlineto
          -25 43 53 -16 69 hhcurveto
          119 85 64 106 90 -68 53 -115 9 hvcurveto
          80 121 rlineto
          283 222 154 258 88 hvcurveto
          -54 hlineto
          -229 -83 -200 -136 -253 hhcurveto
          -308 -206 218 326 473 295 372 376 294 187 -186 -255 4 hvcurveto
          -1 0 0 -1 vvcurveto
          50 hlineto
          1 0 0 1 vvcurveto
          283 -4 -209 205 -318 hhcurveto
          -412 -313 -389 -509 -333 206 -230 309 -21 hvcurveto
          endchar
        </CharString>
        <CharString name="Ccircumflex">
          235 1375 973 -96 callsubr
          -353 868 -63 callgsubr
        </CharString>
        <CharString name="Cdotaccent">
          235 1375 973 -96 callsubr
          -398 681 -101 callgsubr
        </CharString>
        <CharString name="Checyrillic">
          16 callsubr
          endchar
        </CharString>
        <CharString name="Chigreek">
          49 -29 38 callsubr
        </CharString>
        <CharString name="D">
          241 387 1443 31 callsubr
        </CharString>
        <CharString name="Dcaron">
          241 387 1443 -90 callsubr
          634 1507 -84 callsubr
        </CharString>
        <CharString name="Dcircumflexbelow">
          241 387 1443 -90 callsubr
          329 -212 -59 callsubr
        </CharString>
        <CharString name="Dcommaaccent">
          241 387 1443 -90 callsubr
          164 -522 -36 callsubr
        </CharString>
        <CharString name="Dcroat">
          241 143 47 rmoveto
          141 667 rlineto
          446 hlineto
          10 46 rlineto
          -446 hlineto
          135 636 rlineto
          377 hlineto
          350 181 -196 -318 -481 -318 -354 -485 hvcurveto
          -147 1396 rmoveto
          -145 -683 rlineto
          -131 hlineto
          -10 -46 rlineto
          131 hlineto
          -151 -714 rlineto
          453 hlineto
          518 335 373 515 337 -203 218 -372 hvcurveto
          endchar
        </CharString>
        <CharString name="Ddotaccent">
          241 387 1443 -90 callsubr
          684 1607 -101 callgsubr
        </CharString>
        <CharString name="Ddotbelow">
          241 387 1443 -90 callsubr
          301 -319 -101 callgsubr
        </CharString>
        <CharString name="Decyrillic">
          266 384 448 rmoveto
          259 948 rlineto
          717 hlineto
          -287 -1349 rlineto
          -899 hlineto
          2 8 100 76 61 145 47 172 rlinecurve
          -349 -448 rmoveto
          1219 hlineto
          -61 -286 rlineto
          49 hlineto
          70 333 rlineto
          -189 63 callgsubr
          -816 hlineto
          -271 -989 -54 -201 -77 -156 -113 -50 rlinecurve
          -93 hlineto
          -71 -333 rlineto
          49 hlineto
          endchar
        </CharString>
        <CharString name="Deltagreek">
          214 1185 hmoveto
          9 39 -252 1404 rlineto
          -52 hlineto
          -849 -1405 -7 -38 rlineto
          870 1375 rmoveto
          4 hlineto
          235 -1324 -1 -4 rlineto
          -1035 hlineto
          1 4 rlineto
          endchar
        </CharString>
        <CharString name="Djecyrillic">
          492 553 hmoveto
          50 hlineto
          114 callsubr
          rlineto
          101 105 162 75 145 hhcurveto
          227 116 -123 -214 -244 -183 -190 -238 -39 -42 3 6 -17 hvcurveto
          -10 -47 rlineto
          -6 17 45 -4 41 hhcurveto
          275 202 205 280 236 -139 145 -253 -143 -137 -59 -95 -111 hvcurveto
          -8 hlineto
          148 695 rlineto
          522 -3 callgsubr
          -1092 43 callsubr
          520 hlineto
          endchar
        </CharString>
        <CharString name="Dlinebelow">
          241 387 1443 -90 callsubr
          592 -271 -75 callgsubr
        </CharString>
        <CharString name="Dzecyrillic">
          90 119 401 rmoveto
          -102 callsubr
          endchar
        </CharString>
        <CharString name="Dzhecyrillic">
          201 1122 hmoveto
          -35 callsubr
          -297 -1396 rlineto
          -937 63 callgsubr
          -50 -99 callsubr
          524 hlineto
          -61 -285 rlineto
          47 hlineto
          61 285 rlineto
          endchar
        </CharString>
        <CharString name="E">
          -68 916 47 -101 callsubr
          endchar
        </CharString>
        <CharString name="Eacute">
          -69 916 47 -101 callsubr
          -55 1554 -81 callsubr
        </CharString>
        <CharString name="Ebreve">
          -69 916 47 -101 callsubr
          -319 1771 -75 callsubr
          endchar
        </CharString>
        <CharString name="Ecaron">
          -69 916 47 -101 callsubr
          -100 1554 -84 callsubr
        </CharString>
        <CharString name="Ecedilla">
          -69 1203 1396 rmoveto
          10 47 rlineto
          -826 hlineto
          -307 -1443 rlineto
          412 hlineto
          -96 -143 -8 -33 50 -5 rlineto
          90 -8 52 -39 -69 vvcurveto
          -78 -65 -43 -90 -66 -49 15 25 -42 vhcurveto
          -9 -44 rlineto
          -25 43 53 -16 69 hhcurveto
          119 85 64 106 90 -68 53 -115 9 hvcurveto
          93 141 rlineto
          368 hlineto
          10 47 rlineto
          -775 hlineto
          142 671 rlineto
          739 hlineto
          11 46 rlineto
          -740 hlineto
          134 632 rlineto
          endchar
        </CharString>
        <CharString name="Ecedillabreve">
          -69 1052 1771 rmoveto
          -105 -13 -88 -70 -118 hhcurveto
          -122 -79 63 100 1 0 10 1 1 hvcurveto
          -46 hlineto
          -1 -2 0 -12 -2 vvcurveto
          -122 95 -80 143 149 111 87 131 14 vhcurveto
          105 -375 rmoveto
          10 47 rlineto
          -826 hlineto
          -307 -1443 rlineto
          412 hlineto
          -96 -143 -8 -33 50 -5 rlineto
          90 -8 52 -39 -69 vvcurveto
          -78 -65 -43 -90 -66 -49 15 25 -42 vhcurveto
          -9 -44 rlineto
          -25 43 53 -16 69 hhcurveto
          119 85 64 106 90 -68 53 -115 9 hvcurveto
          93 141 rlineto
          368 hlineto
          10 47 rlineto
          -775 hlineto
          142 671 rlineto
          739 hlineto
          11 46 rlineto
          -740 hlineto
          134 632 rlineto
          endchar
        </CharString>
        <CharString name="Ecircumflex">
          -69 916 47 -101 callsubr
          -5 1841 -63 callgsubr
        </CharString>
        <CharString name="Ecircumflexacute">
          -69 916 47 -101 callsubr
          -65 1759 -54 callsubr
          127 -5 rmoveto
          65 hlineto
          254 101 callgsubr
        </CharString>
        <CharString name="Ecircumflexbelow">
          -69 916 47 -101 callsubr
          -411 -165 -59 callsubr
        </CharString>
        <CharString name="Ecircumflexdotbelow">
          -69 916 47 -101 callsubr
          -5 1841 -74 callgsubr
          -631 -1826 -101 callgsubr
        </CharString>
        <CharString name="Ecircumflexgrave">
          -69 916 47 -101 callsubr
          -65 1759 -54 callsubr
          330 -5 rmoveto
          -182 27 callsubr
          endchar
        </CharString>
        <CharString name="Ecircumflexhookabove">
          -69 916 47 -101 callsubr
          -65 1759 -54 callsubr
          80 134 rmoveto
          13 24 43 10 37 hhcurveto
          62 37 -30 -53 -42 -24 -34 -44 -23 hvcurveto
          24 -32 rlineto
          58 31 32 49 60 vvcurveto
          68 -57 47 -81 -41 -42 -11 -11 -19 vhcurveto
          endchar
        </CharString>
        <CharString name="Ecircumflextilde">
          -69 916 47 -101 callsubr
          99 1825 -37 callsubr
        </CharString>
        <CharString name="Ecyrillic">
          -5 callgsubr
          endchar
        </CharString>
        <CharString name="Edblgrave">
          -69 916 47 -101 callsubr
          -236 1554 -45 callgsubr
          434 -287 -45 callgsubr
          endchar
        </CharString>
        <CharString name="Edieresis">
          -69 916 47 -101 callsubr
          -199 1601 -105 callsubr
        </CharString>
        <CharString name="Edotaccent">
          -69 916 47 -101 callsubr
          -50 1654 -101 callgsubr
        </CharString>
        <CharString name="Edotbelow">
          -69 916 47 -101 callsubr
          -439 -272 -101 callgsubr
        </CharString>
        <CharString name="Efcyrillic">
          401 726 -11 rmoveto
          34 160 rlineto
          470 1 329 277 396 vvcurveto
          300 -204 171 -351 1 vhcurveto
          33 159 -11 callgsubr
          -34 -159 rlineto
          -470 -1 -329 -277 -397 vvcurveto
          -299 203 -171 352 -1 vhcurveto
          -34 -160 rlineto
          -469 632 rmoveto
          366 305 261 432 vhcurveto
          -224 -1053 rlineto
          -323 1 -190 152 273 vvcurveto
          1300 201 rmoveto
          -365 -306 -261 -431 -1 vhcurveto
          224 1053 rlineto
          323 190 -152 -274 hvcurveto
          endchar
        </CharString>
        <CharString name="Egrave">
          -69 916 47 -101 callsubr
          -118 1554 -45 callgsubr
          endchar
        </CharString>
        <CharString name="Ehookabove">
          -69 916 47 -101 callsubr
          -211 1752 -62 callsubr
        </CharString>
        <CharString name="Einvertedbreve">
          -69 916 47 -101 callsubr
          186 1553 -56 callsubr
        </CharString>
        <CharString name="Elcyrillic">
          168 1089 hmoveto
          -45 callsubr
        </CharString>
        <CharString name="Emacron">
          -69 916 47 -101 callsubr
          232 1659 -75 callgsubr
        </CharString>
        <CharString name="Emacronacute">
          -69 916 47 -101 callsubr
          220 1612 37 callgsubr
          266 142 rmoveto
          65 49 callsubr
          endchar
        </CharString>
        <CharString name="Emacrongrave">
          -69 916 47 -101 callsubr
          220 1612 37 callgsubr
          361 142 100 callgsubr
          endchar
        </CharString>
        <CharString name="Emcyrillic">
          492 134 22 callgsubr
        </CharString>
        <CharString name="Encyrillic">
          213 1133 6 callgsubr
        </CharString>
        <CharString name="Eogonek">
          -69 80 hmoveto
          744 0 hlineto
          -157 -66 -84 -84 -93 vvcurveto
          -81 65 -59 91 26 30 5 7 16 vhcurveto
          10 44 rlineto
          -8 -16 -25 -4 -28 hhcurveto
          -69 -51 45 59 84 83 71 190 80 hvcurveto
          1 1 10 46 rlineto
          -776 -24 callsubr
          740 49 callgsubr
          -740 -49 callsubr
          10 47 rlineto
          -826 hlineto
          endchar
        </CharString>
        <CharString name="Epsilongreek">
          -69 916 47 -101 callsubr
          endchar
        </CharString>
        <CharString name="Epsilontonosgreek">
          69 193 16 callgsubr
          715 -1396 -101 callsubr
          endchar
        </CharString>
        <CharString name="Ercyrillic">
          41 397 1443 -69 callsubr
          endchar
        </CharString>
        <CharString name="Ereversedcyrillic">
          -85 callsubr
          endchar
        </CharString>
        <CharString name="Escyrillic">
          245 1380 973 -96 callsubr
          endchar
        </CharString>
        <CharString name="Etagreek">
          203 1128 6 callgsubr
        </CharString>
        <CharString name="Etatonosgreek">
          340 193 16 callgsubr
          927 -1443 -17 callgsubr
        </CharString>
        <CharString name="Eth">
          241 143 47 rmoveto
          141 667 rlineto
          446 hlineto
          10 46 rlineto
          -446 hlineto
          135 636 rlineto
          377 hlineto
          350 181 -196 -318 -481 -318 -354 -485 hvcurveto
          -147 1396 rmoveto
          -145 -683 rlineto
          -131 hlineto
          -10 -46 rlineto
          131 hlineto
          -151 -714 rlineto
          453 hlineto
          518 335 373 515 337 -203 218 -372 hvcurveto
          endchar
        </CharString>
        <CharString name="Etilde">
          -69 916 47 -101 callsubr
          69 1553 -103 callgsubr
          endchar
        </CharString>
        <CharString name="Etildebelow">
          -69 916 47 -101 callsubr
          -320 -370 -103 callgsubr
          endchar
        </CharString>
        <CharString name="Euro">
          72 148 869 rmoveto
          -9 -44 rlineto
          213 hlineto
          -11 -53 -5 -56 -58 vvcurveto
          -19 1 -18 1 -18 vhcurveto
          -247 hlineto
          -10 -45 rlineto
          261 hlineto
          -350 40 256 -227 364 hhcurveto
          44 55 5 7 13 hvcurveto
          9 47 rlineto
          -7 -13 -56 -6 -44 hhcurveto
          -338 -236 209 322 -41 hvcurveto
          594 hlineto
          9 45 rlineto
          -607 hlineto
          -1 18 -1 19 19 vvcurveto
          58 6 55 11 53 vhcurveto
          640 hlineto
          9 44 rlineto
          -639 hlineto
          319 87 287 213 372 hhcurveto
          60 61 -6 -11 62 hvcurveto
          11 47 rlineto
          10 -49 -77 8 -63 hhcurveto
          -408 -309 -231 -349 -88 hvcurveto
          endchar
        </CharString>
        <CharString name="F">
          -99 130 20 callsubr
          endchar
        </CharString>
        <CharString name="Fdotaccent">
          -99 130 20 callsubr
          771 1654 -101 callgsubr
        </CharString>
        <CharString name="G">
          -94 callgsubr
          endchar
        </CharString>
        <CharString name="Gacute">
          -94 callgsubr
          -400 1042 -81 callsubr
        </CharString>
        <CharString name="Gammagreek">
          5 184 hmoveto
          0 callsubr
          747 -3 callgsubr
          -797 -99 callsubr
          endchar
        </CharString>
        <CharString name="Gbreve">
          -94 callgsubr
          -664 1259 -75 callsubr
          endchar
        </CharString>
        <CharString name="Gcaron">
          -94 callgsubr
          -445 1042 -84 callsubr
        </CharString>
        <CharString name="Gcircumflex">
          -94 callgsubr
          -350 1329 -63 callgsubr
        </CharString>
        <CharString name="Gcommaaccent">
          -94 callgsubr
          -790 -987 -36 callsubr
        </CharString>
        <CharString name="Gdotaccent">
          -94 callgsubr
          -395 1142 -101 callgsubr
        </CharString>
        <CharString name="Gecyrillic">
          74 callgsubr
          endchar
        </CharString>
        <CharString name="Geupturncyrillic">
          -77 432 1396 rmoveto
          766 hlineto
          62 297 rlineto
          -48 hlineto
          -53 -250 rlineto
          -767 -99 callsubr
          50 hlineto
          endchar
        </CharString>
        <CharString name="Gjecyrillic">
          74 callgsubr
          755 1554 -81 callsubr
        </CharString>
        <CharString name="Gmacron">
          -94 callgsubr
          -113 1147 -75 callgsubr
        </CharString>
        <CharString name="H">
          203 1128 6 callgsubr
        </CharString>
        <CharString name="Hardsigncyrillic">
          354 843 hmoveto
          326 212 202 286 201 -155 151 -262 hvcurveto
          -366 hlineto
          128 603 rlineto
          -408 43 callsubr
          358 -6 callgsubr
          588 794 rmoveto
          240 134 -130 -180 -260 -200 -177 -289 hvcurveto
          -413 hlineto
          159 747 rlineto
          endchar
        </CharString>
        <CharString name="Hbar">
          203 1241 765 rmoveto
          -948 hlineto
          75 352 rlineto
          948 hlineto
          160 46 rmoveto
          -101 hlineto
          60 280 rlineto
          -50 hlineto
          -59 -280 rlineto
          -948 hlineto
          59 280 rlineto
          -50 hlineto
          -60 -280 rlineto
          -96 hlineto
          -10 -46 rlineto
          97 hlineto
          -238 -1117 rlineto
          50 hlineto
          153 718 rlineto
          948 hlineto
          -153 -718 rlineto
          50 hlineto
          238 1117 rlineto
          100 hlineto
          endchar
        </CharString>
        <CharString name="Hbrevebelow">
          203 1128 hmoveto
          -90 callgsubr
          -788 -155 8 callgsubr
        </CharString>
        <CharString name="Hcaron">
          203 1128 hmoveto
          -90 callgsubr
          -162 1554 -84 callsubr
        </CharString>
        <CharString name="Hcedilla">
          203 1385 1443 rmoveto
          -144 -678 rlineto
          -948 hlineto
          144 678 rlineto
          -50 hlineto
          -307 -1443 rlineto
          4 hlineto
          -96 -143 -8 -33 50 -5 rlineto
          90 -8 52 -39 -69 vvcurveto
          -78 -65 -43 -90 -66 -49 15 25 -42 vhcurveto
          -9 -44 rlineto
          -25 43 53 -16 69 hhcurveto
          119 85 64 106 90 -68 53 -115 9 hvcurveto
          93 141 3 14 rlineto
          0 vlineto
          150 704 rlineto
          948 hlineto
          -153 -718 rlineto
          50 hlineto
          307 1443 rlineto
          endchar
        </CharString>
        <CharString name="Hcircumflex">
          203 1128 hmoveto
          -90 callgsubr
          -67 1841 -63 callgsubr
        </CharString>
        <CharString name="Hdieresis">
          203 1128 hmoveto
          -90 callgsubr
          -261 1601 -105 callsubr
        </CharString>
        <CharString name="Hdotaccent">
          203 1128 hmoveto
          -90 callgsubr
          -112 1654 -101 callgsubr
        </CharString>
        <CharString name="Hdotbelow">
          203 1128 hmoveto
          -90 callgsubr
          -518 -272 -101 callgsubr
        </CharString>
        <CharString name="I">
          -795 130 hmoveto
          -89 callgsubr
          endchar
        </CharString>
        <CharString name="I.1">
          -290 996 1397 rmoveto
          9 46 rlineto
          -315 hlineto
          -50 hlineto
          -316 hlineto
          -10 -46 rlineto
          316 hlineto
          -287 -1351 rlineto
          -317 hlineto
          -9 -46 rlineto
          316 hlineto
          50 hlineto
          315 hlineto
          10 46 rlineto
          -315 hlineto
          287 1351 rlineto
          endchar
        </CharString>
        <CharString name="IAcyrillic">
          -65 callsubr
          endchar
        </CharString>
        <CharString name="IJ">
          141 130 hmoveto
          -89 callgsubr
          295 295 -69 callgsubr
          endchar
        </CharString>
        <CharString name="IJacute">
          141 130 hmoveto
          -89 callgsubr
          382 1554 rmoveto
          359 -1 callgsubr
          -70 hlineto
          -352 -287 rlineto
          1000 hmoveto
          359 -1 callgsubr
          -70 hlineto
          -352 -287 rlineto
          -961 -1259 -69 callgsubr
          endchar
        </CharString>
        <CharString name="IUcyrillic">
          765 1164 27 rmoveto
          -302 -192 217 330 460 294 382 391 303 192 -217 -330 -484 -310 -358 -376 hvcurveto
          -866 738 rmoveto
          144 678 rlineto
          -50 hlineto
          -307 -1443 rlineto
          50 hlineto
          153 718 rlineto
          342 hlineto
          -7 -48 -3 -50 -50 vvcurveto
          -348 208 -242 334 409 329 380 511 348 -209 244 -334 -369 -281 -302 -396 -70 vhcurveto
          endchar
        </CharString>
        <CharString name="Iacute">
          -796 130 hmoveto
          -89 callgsubr
          382 1554 -81 callsubr
        </CharString>
        <CharString name="Iacute.1">
          -290 1074 1841 rmoveto
          -70 hlineto
          -352 -287 rlineto
          63 hlineto
          -75 -111 rmoveto
          -316 hlineto
          -10 -46 rlineto
          316 hlineto
          -287 -1351 rlineto
          -317 hlineto
          -9 -46 rlineto
          316 hlineto
          50 hlineto
          315 hlineto
          10 46 rlineto
          -315 hlineto
          287 1351 rlineto
          316 hlineto
          9 46 rlineto
          -315 hlineto
          endchar
        </CharString>
        <CharString name="Ibreve">
          -796 130 hmoveto
          -89 callgsubr
          119 1771 -75 callsubr
          endchar
        </CharString>
        <CharString name="Ibreve.1">
          -290 916 1771 rmoveto
          -105 -13 -88 -70 -118 hhcurveto
          -122 -79 63 100 1 0 10 1 1 hvcurveto
          -46 hlineto
          -1 -2 0 -12 -2 vvcurveto
          -122 95 -80 143 149 111 87 131 14 vhcurveto
          34 -374 rmoveto
          9 46 rlineto
          -315 hlineto
          -50 hlineto
          -316 hlineto
          -10 -46 rlineto
          316 hlineto
          -287 -1351 rlineto
          -317 hlineto
          -9 -46 rlineto
          316 hlineto
          50 hlineto
          315 hlineto
          10 46 rlineto
          -315 hlineto
          287 1351 rlineto
          endchar
        </CharString>
        <CharString name="Icaron">
          -796 130 hmoveto
          -89 callgsubr
          338 1554 -84 callsubr
        </CharString>
        <CharString name="Icaron.1">
          -290 713 1554 rmoveto
          318 287 rlineto
          -64 hlineto
          -270 -244 rlineto
          -2 hlineto
          -165 244 rlineto
          -56 hlineto
          196 -287 rlineto
          -30 -111 rmoveto
          -316 hlineto
          -10 -46 rlineto
          316 hlineto
          -287 -1351 rlineto
          -317 hlineto
          -9 -46 rlineto
          316 hlineto
          50 hlineto
          315 hlineto
          10 46 rlineto
          -315 hlineto
          287 1351 rlineto
          316 hlineto
          9 46 rlineto
          -315 hlineto
          endchar
        </CharString>
        <CharString name="Icircumflex">
          -796 130 hmoveto
          -89 callgsubr
          433 1841 -63 callgsubr
        </CharString>
        <CharString name="Icircumflex.1">
          -290 738 1799 rmoveto
          3 hlineto
          166 -245 rlineto
          55 hlineto
          -197 287 rlineto
          -42 hlineto
          -319 -287 rlineto
          65 hlineto
          527 -157 rmoveto
          9 46 rlineto
          -315 hlineto
          -50 hlineto
          -316 hlineto
          -10 -46 rlineto
          316 hlineto
          -287 -1351 rlineto
          -317 hlineto
          -9 -46 rlineto
          316 hlineto
          50 hlineto
          315 hlineto
          10 46 rlineto
          -315 hlineto
          287 1351 rlineto
          endchar
        </CharString>
        <CharString name="Icyrillic">
          -786 135 hmoveto
          -89 callgsubr
          endchar
        </CharString>
        <CharString name="Icyrillic.1">
          -270 1006 1397 rmoveto
          9 46 rlineto
          -315 hlineto
          -50 hlineto
          -316 hlineto
          -10 -46 rlineto
          316 hlineto
          -287 -1351 rlineto
          -317 hlineto
          -9 -46 rlineto
          316 hlineto
          50 hlineto
          315 hlineto
          10 46 rlineto
          -315 hlineto
          287 1351 rlineto
          endchar
        </CharString>
        <CharString name="Idblgrave">
          -796 130 hmoveto
          -89 callgsubr
          201 1554 -45 callgsubr
          434 -287 -45 callgsubr
          endchar
        </CharString>
        <CharString name="Idblgrave.1">
          -290 842 1554 rmoveto
          -175 287 rlineto
          -57 hlineto
          179 -287 rlineto
          -202 0 rmoveto
          -175 287 rlineto
          -57 hlineto
          179 -287 rlineto
          462 -157 rmoveto
          9 46 rlineto
          -315 hlineto
          -50 hlineto
          -316 hlineto
          -10 -46 rlineto
          316 hlineto
          -287 -1351 rlineto
          -317 hlineto
          -9 -46 rlineto
          316 hlineto
          50 hlineto
          315 hlineto
          10 46 rlineto
          -315 hlineto
          287 1351 rlineto
          endchar
        </CharString>
        <CharString name="Idieresis">
          23 callgsubr
        </CharString>
        <CharString name="Idieresis.1">
          -290 848 1601 rmoveto
          30 24 24 30 29 -24 24 -30 -29 -25 -24 -29 -30 25 -24 29 hvcurveto
          -277 0 rmoveto
          29 25 24 30 29 -25 24 -29 -29 -25 -24 -29 -30 25 -24 29 hvcurveto
          425 -204 rmoveto
          9 46 rlineto
          -315 hlineto
          -50 hlineto
          -316 hlineto
          -10 -46 rlineto
          316 hlineto
          -287 -1351 rlineto
          -317 hlineto
          -9 -46 rlineto
          316 hlineto
          50 hlineto
          315 hlineto
          10 46 rlineto
          -315 hlineto
          287 1351 rlineto
          endchar
        </CharString>
        <CharString name="Idieresisacute">
          -796 130 hmoveto
          -89 callgsubr
          342 1754 rmoveto
          64 49 callsubr
          -365 -404 -32 callgsubr
        </CharString>
        <CharString name="Idieresisacute.1">
          -290 993 1957 rmoveto
          -68 hlineto
          -251 -203 rlineto
          64 hlineto
          44 -148 rmoveto
          -29 25 -24 29 29 25 24 29 29 -25 24 -29 -29 -25 -24 -29 vhcurveto
          -222 -53 rmoveto
          29 25 24 29 29 -25 24 -29 -29 -25 -24 -29 -29 25 -24 29 hvcurveto
          436 -156 rmoveto
          9 46 rlineto
          -315 hlineto
          -50 hlineto
          -316 hlineto
          -10 -46 rlineto
          316 hlineto
          -287 -1351 rlineto
          -317 hlineto
          -9 -46 rlineto
          316 hlineto
          50 hlineto
          315 hlineto
          10 46 rlineto
          -315 hlineto
          287 1351 rlineto
          endchar
        </CharString>
        <CharString name="Idotaccent">
          -796 130 hmoveto
          -89 callgsubr
          388 1654 -101 callgsubr
        </CharString>
        <CharString name="Idotaccent.1">
          -290 720 1654 rmoveto
          34 30 29 34 35 -30 29 -34 -35 -30 -29 -35 -34 30 -29 35 hvcurveto
          276 -257 rmoveto
          9 46 rlineto
          -315 hlineto
          -50 hlineto
          -316 hlineto
          -10 -46 rlineto
          316 hlineto
          -287 -1351 rlineto
          -317 hlineto
          -9 -46 rlineto
          316 hlineto
          50 hlineto
          315 hlineto
          10 46 rlineto
          -315 hlineto
          287 1351 rlineto
          endchar
        </CharString>
        <CharString name="Idotbelow">
          -796 130 hmoveto
          -89 callgsubr
          -21 -272 -101 callgsubr
        </CharString>
        <CharString name="Idotbelow.1">
          -290 311 -145 rmoveto
          -35 -30 -29 -35 -34 30 -29 35 34 30 29 34 35 -30 29 -34 hvcurveto
          685 1542 rmoveto
          9 46 rlineto
          -315 hlineto
          -50 hlineto
          -316 hlineto
          -10 -46 rlineto
          316 hlineto
          -287 -1351 rlineto
          -317 hlineto
          -9 -46 rlineto
          316 hlineto
          50 hlineto
          315 hlineto
          10 46 rlineto
          -315 hlineto
          287 1351 rlineto
          endchar
        </CharString>
        <CharString name="Iecyrillic">
          -59 921 47 -101 callsubr
          endchar
        </CharString>
        <CharString name="Igrave">
          -796 130 hmoveto
          -89 callgsubr
          319 1554 -45 callgsubr
          endchar
        </CharString>
        <CharString name="Igrave.1">
          -290 705 1554 rmoveto
          -175 287 rlineto
          -57 hlineto
          179 -287 rlineto
          344 -157 rmoveto
          9 46 rlineto
          -315 hlineto
          -50 hlineto
          -316 hlineto
          -10 -46 rlineto
          316 hlineto
          -287 -1351 rlineto
          -317 hlineto
          -9 -46 rlineto
          316 hlineto
          50 hlineto
          315 hlineto
          10 46 rlineto
          -315 hlineto
          287 1351 rlineto
          endchar
        </CharString>
        <CharString name="Ihookabove">
          -796 130 hmoveto
          -89 callgsubr
          227 1752 -62 callsubr
        </CharString>
        <CharString name="Ihookabove.1">
          -290 675 1543 rmoveto
          79 26 51 56 72 vvcurveto
          69 -58 50 -84 -33 -42 -10 -12 -19 vhcurveto
          -10 -42 rlineto
          13 25 38 10 37 hhcurveto
          63 37 -33 -51 -53 -40 -40 -66 -22 hvcurveto
          343 -179 rmoveto
          9 46 rlineto
          -315 hlineto
          -50 hlineto
          -316 hlineto
          -10 -46 rlineto
          316 hlineto
          -287 -1351 rlineto
          -317 hlineto
          -9 -46 rlineto
          316 hlineto
          50 hlineto
          315 hlineto
          10 46 rlineto
          -315 hlineto
          287 1351 rlineto
          endchar
        </CharString>
        <CharString name="Iicyrillic">
          231 1102 hmoveto
          -58 callgsubr
          endchar
        </CharString>
        <CharString name="Iinvertedbreve">
          -796 130 hmoveto
          -89 callgsubr
          624 1553 -56 callsubr
        </CharString>
        <CharString name="Iinvertedbreve.1">
          -290 956 1553 rmoveto
          1 2 2 11 12 vvcurveto
          114 -101 79 -141 -149 -113 -90 -128 -10 vhcurveto
          46 hlineto
          104 9 92 71 120 hhcurveto
          120 80 -62 -92 -10 -1 -10 -1 -1 hvcurveto
          86 -156 rmoveto
          9 46 rlineto
          -315 hlineto
          -50 hlineto
          -316 hlineto
          -10 -46 rlineto
          316 hlineto
          -287 -1351 rlineto
          -317 hlineto
          -9 -46 rlineto
          316 hlineto
          50 hlineto
          315 hlineto
          10 46 rlineto
          -315 hlineto
          287 1351 rlineto
          endchar
        </CharString>
        <CharString name="Iishortcyrillic">
          231 1102 hmoveto
          -58 callgsubr
          -654 426 -78 callgsubr
        </CharString>
        <CharString name="Imacron">
          -796 130 hmoveto
          -89 callgsubr
          670 1659 -75 callgsubr
        </CharString>
        <CharString name="Imacron.1">
          -290 1002 1659 rmoveto
          -583 hlineto
          -9 -44 rlineto
          583 hlineto
          3 -218 rmoveto
          9 46 rlineto
          -315 hlineto
          -50 hlineto
          -316 hlineto
          -10 -46 rlineto
          316 hlineto
          -287 -1351 rlineto
          -317 hlineto
          -9 -46 rlineto
          316 hlineto
          50 hlineto
          315 hlineto
          10 46 rlineto
          -315 hlineto
          287 1351 rlineto
          endchar
        </CharString>
        <CharString name="Iocyrillic">
          -59 921 47 -101 callsubr
          -199 1601 -105 callsubr
        </CharString>
        <CharString name="Iogonek">
          -796 35 -383 rmoveto
          26 31 5 7 16 hvcurveto
          9 44 rlineto
          -8 -13 -24 -4 -31 hhcurveto
          -70 -51 45 60 80 52 60 148 91 hvcurveto
          1 1 308 1445 -10 callsubr
          -305 -1432 rlineto
          0 vlineto
          -138 -81 -65 -82 -91 vvcurveto
          -81 65 -59 91 vhcurveto
          endchar
        </CharString>
        <CharString name="Iogonek.1">
          -290 314 88 callsubr
          316 hlineto
          -288 -1351 rlineto
          -316 hlineto
          -9 -46 rlineto
          575 -4 hlineto
          -121 -45 -89 -82 -17 -87 rrcurveto
          -97 -19 64 -68 111 hhcurveto
          30 30 4 6 14 hvcurveto
          9 41 rlineto
          -4 -13 -29 -3 -30 hhcurveto
          -85 -49 52 74 15 hvcurveto
          17 85 105 76 151 50 13 5 rcurveline
          9 43 rlineto
          -316 hlineto
          288 1351 rlineto
          316 63 callsubr
          -681 hlineto
          endchar
        </CharString>
        <CharString name="Iotadieresisgreek">
          23 callgsubr
        </CharString>
        <CharString name="Iotadieresisgreek.1">
          -290 848 1601 rmoveto
          30 24 24 30 29 -24 24 -30 -29 -25 -24 -29 -30 25 -24 29 hvcurveto
          -277 0 rmoveto
          29 25 24 30 29 -25 24 -29 -29 -25 -24 -29 -30 25 -24 29 hvcurveto
          425 -204 rmoveto
          9 46 rlineto
          -315 hlineto
          -50 hlineto
          -316 hlineto
          -10 -46 rlineto
          316 hlineto
          -287 -1351 rlineto
          -317 hlineto
          -9 -46 rlineto
          316 hlineto
          50 hlineto
          315 hlineto
          10 46 rlineto
          -315 hlineto
          287 1351 rlineto
          endchar
        </CharString>
        <CharString name="Iotagreek">
          -796 130 hmoveto
          -89 callgsubr
          endchar
        </CharString>
        <CharString name="Iotagreek.1">
          -290 996 1397 rmoveto
          9 46 rlineto
          -315 hlineto
          -50 hlineto
          -316 hlineto
          -10 -46 rlineto
          316 hlineto
          -287 -1351 rlineto
          -317 hlineto
          -9 -46 rlineto
          316 hlineto
          50 hlineto
          315 hlineto
          10 46 rlineto
          -315 hlineto
          287 1351 rlineto
          endchar
        </CharString>
        <CharString name="Iotatonosgreek">
          -638 193 16 callgsubr
          -71 -1443 -68 callgsubr
          endchar
        </CharString>
        <CharString name="Iotatonosgreek.1">
          -106 404 1443 rmoveto
          -65 hlineto
          -146 -294 rlineto
          46 hlineto
          942 248 rmoveto
          9 46 rlineto
          -315 hlineto
          -50 hlineto
          -316 hlineto
          -10 -46 rlineto
          316 hlineto
          -287 -1351 rlineto
          -317 hlineto
          -9 -46 rlineto
          316 hlineto
          50 hlineto
          315 hlineto
          10 46 rlineto
          -315 hlineto
          287 1351 rlineto
          endchar
        </CharString>
        <CharString name="Itilde">
          -796 130 hmoveto
          -89 callgsubr
          507 1553 -103 callgsubr
          endchar
        </CharString>
        <CharString name="Itilde.1">
          -290 970 1752 rmoveto
          -100 -20 -51 -55 -57 hhcurveto
          -110 -22 167 -132 hhcurveto
          -88 -72 -74 -125 -20 hvcurveto
          44 hlineto
          98 19 53 58 61 hhcurveto
          110 22 -168 132 hhcurveto
          85 64 69 130 26 hvcurveto
          -374 -309 rmoveto
          -316 hlineto
          -10 -46 rlineto
          316 hlineto
          -287 -1351 rlineto
          -317 hlineto
          -9 -46 rlineto
          316 hlineto
          50 hlineto
          315 hlineto
          10 46 rlineto
          -315 hlineto
          287 1351 rlineto
          316 hlineto
          9 46 rlineto
          -315 hlineto
          endchar
        </CharString>
        <CharString name="Itildebelow">
          -796 130 hmoveto
          -89 callgsubr
          98 -370 -103 callgsubr
          endchar
        </CharString>
        <CharString name="Itildebelow.1">
          -290 33 -358 rmoveto
          98 19 53 58 61 hhcurveto
          110 22 -168 132 hhcurveto
          85 64 69 130 26 hvcurveto
          -44 hlineto
          -100 -20 -51 -55 -57 hhcurveto
          -110 -22 167 -132 hhcurveto
          -88 -72 -74 -125 -20 hvcurveto
          1007 1755 rmoveto
          9 46 rlineto
          -315 hlineto
          -50 hlineto
          -316 hlineto
          -10 -46 rlineto
          316 hlineto
          -287 -1351 rlineto
          -317 hlineto
          -9 -46 rlineto
          316 hlineto
          50 hlineto
          315 hlineto
          10 46 rlineto
          -315 hlineto
          287 1351 rlineto
          endchar
        </CharString>
        <CharString name="J">
          -170 64 295 -69 callgsubr
          endchar
        </CharString>
        <CharString name="Jcircumflex">
          -170 64 295 -69 callgsubr
          1074 1546 -63 callgsubr
        </CharString>
        <CharString name="Jecyrillic">
          -160 69 295 -69 callgsubr
          endchar
        </CharString>
        <CharString name="K">
          -66 callsubr
          endchar
        </CharString>
        <CharString name="Kacute">
          -66 callsubr
          740 1554 -81 callsubr
        </CharString>
        <CharString name="Kacyrillic">
          19 1306 1443 rmoveto
          -77 hlineto
          -926 -684 rlineto
          -6 hlineto
          145 684 rlineto
          -50 hlineto
          -307 -1443 rlineto
          50 hlineto
          153 719 rlineto
          5 hlineto
          705 -719 rlineto
          67 hlineto
          -721 735 rlineto
          endchar
        </CharString>
        <CharString name="Kappagreek">
          -66 callsubr
          endchar
        </CharString>
        <CharString name="Kcaron">
          -66 callsubr
          695 1554 -84 callsubr
        </CharString>
        <CharString name="Kcommaaccent">
          -66 callsubr
          279 -475 -36 callsubr
        </CharString>
        <CharString name="Kdotbelow">
          -66 callsubr
          416 -272 -101 callgsubr
        </CharString>
        <CharString name="Kjecyrillic">
          19 1194 1841 rmoveto
          -70 hlineto
          -352 -287 rlineto
          63 hlineto
          471 -111 rmoveto
          -77 hlineto
          -926 -684 rlineto
          -6 hlineto
          145 684 rlineto
          -50 hlineto
          -307 -1443 rlineto
          50 hlineto
          153 719 rlineto
          5 hlineto
          705 -719 rlineto
          67 hlineto
          -721 735 rlineto
          endchar
        </CharString>
        <CharString name="Klinebelow">
          -66 callsubr
          707 -224 -75 callgsubr
        </CharString>
        <CharString name="L">
          -105 915 47 77 callgsubr
        </CharString>
        <CharString name="Lacute">
          -105 915 47 -34 callsubr
          -443 1554 -81 callsubr
        </CharString>
        <CharString name="Lambdagreek">
          92 844 1375 rmoveto
          4 hlineto
          222 -1375 rlineto
          48 hlineto
          -236 -28 callgsubr
          -52 hlineto
          -850 94 callgsubr
          endchar
        </CharString>
        <CharString name="Lcaron">
          -105 861 85 callsubr
          -77 -355 rlineto
          38 101 callsubr
          5 -1396 77 callgsubr
        </CharString>
        <CharString name="Lcircumflexbelow">
          -105 915 47 -34 callsubr
          -430 -165 -59 callsubr
        </CharString>
        <CharString name="Lcommaaccent">
          -105 915 47 -34 callsubr
          -595 -475 -36 callsubr
        </CharString>
        <CharString name="Ldotbelow">
          -105 915 47 -34 callsubr
          -458 -272 -101 callgsubr
        </CharString>
        <CharString name="Ldotbelowmacron">
          -105 915 47 -34 callsubr
          -458 -272 -102 callgsubr
          303 1931 -75 callgsubr
        </CharString>
        <CharString name="Ljecyrillic">
          964 398 450 rmoveto
          259 946 rlineto
          660 -6 callgsubr
          474 hlineto
          322 216 200 289 212 -167 141 -250 hvcurveto
          -365 hlineto
          127 601 rlineto
          -759 hlineto
          -269 -986 rlineto
          -277 -76 -99 -142 -130 hhcurveto
          -19 -22 4 5 -12 hvcurveto
          -9 -47 rlineto
          -5 12 21 -4 20 hhcurveto
          165 114 150 309 84 hvcurveto
          1211 345 rmoveto
          227 146 -120 -192 -259 -199 -177 -290 hvcurveto
          -413 hlineto
          160 748 rlineto
          endchar
        </CharString>
        <CharString name="Llinebelow">
          -105 915 47 -34 callsubr
          -167 -224 -75 callgsubr
        </CharString>
        <CharString name="Lslash">
          -105 140 47 rmoveto
          128 599 499 233 10 50 -499 -232 159 746 rlineto
          -50 hlineto
          -164 -772 -146 -68 -10 -50 145 68 -132 -621 rlineto
          825 hlineto
          10 47 rlineto
          endchar
        </CharString>
        <CharString name="M">
          482 129 22 callgsubr
        </CharString>
        <CharString name="Macute">
          482 129 -70 callsubr
          999 1554 -81 callsubr
        </CharString>
        <CharString name="Mdotaccent">
          482 129 -70 callsubr
          1004 1654 -101 callgsubr
        </CharString>
        <CharString name="Mdotbelow">
          482 129 -70 callsubr
          619 -272 -101 callgsubr
        </CharString>
        <CharString name="Mugreek">
          482 129 22 callgsubr
        </CharString>
        <CharString name="N">
          225 -88 callgsubr
          endchar
        </CharString>
        <CharString name="Nacute">
          225 -88 callgsubr
          889 1554 -81 callsubr
        </CharString>
        <CharString name="Ncaron">
          225 -88 callgsubr
          844 1554 -84 callsubr
        </CharString>
        <CharString name="Ncircumflexbelow">
          225 -88 callgsubr
          517 -165 -59 callsubr
        </CharString>
        <CharString name="Ncommaaccent">
          225 -88 callgsubr
          352 -475 -36 callsubr
        </CharString>
        <CharString name="Ndotaccent">
          225 -88 callgsubr
          894 1654 -101 callgsubr
        </CharString>
        <CharString name="Ndotbelow">
          225 -88 callgsubr
          489 -272 -101 callgsubr
        </CharString>
        <CharString name="Ngrave">
          225 -88 callgsubr
          825 1554 -45 callgsubr
          endchar
        </CharString>
        <CharString name="Njecyrillic">
          964 1055 hmoveto
          451 hlineto
          314 212 179 256 198 -162 132 -244 hvcurveto
          -359 hlineto
          145 678 -10 callsubr
          -145 -678 rlineto
          -923 hlineto
          144 678 -64 callsubr
          153 718 rlineto
          924 hlineto
          -94 -671 rmoveto
          144 671 rlineto
          362 hlineto
          221 141 -111 -178 -227 -193 -155 -285 hvcurveto
          endchar
        </CharString>
        <CharString name="Nlinebelow">
          225 -88 callgsubr
          780 -224 -75 callgsubr
        </CharString>
        <CharString name="Ntilde">
          225 -88 callgsubr
          1013 1553 -103 callgsubr
          endchar
        </CharString>
        <CharString name="Nugreek">
          225 -88 callgsubr
          endchar
        </CharString>
        <CharString name="NumberSignCyrillic">
          938 127 hmoveto
          290 1360 rlineto
          4 hlineto
          647 -1360 rlineto
          46 3 callgsubr
          -287 -1349 rlineto
          -5 hlineto
          -639 1349 rlineto
          -56 -99 callsubr
          1953 617 rmoveto
          10 46 rlineto
          -598 hlineto
          -10 -46 rlineto
          673 571 rmoveto
          -178 -124 -139 -157 -143 -91 93 146 177 124 141 158 141 92 -95 -145 vhcurveto
          51 1 rmoveto
          172 -111 112 -171 -190 -145 -158 -205 -174 109 -110 174 185 149 162 201 vhcurveto
          endchar
        </CharString>
        <CharString name="O">
          329 899 1416 -106 callsubr
          endchar
        </CharString>
        <CharString name="OE">
          1113 1244 hmoveto
          825 -3 callgsubr
          -775 -24 callsubr
          739 49 callgsubr
          -739 -49 callsubr
          9 47 rlineto
          -825 hlineto
          -107 -507 rlineto
          -4 hlineto
          325 -31 -206 202 -308 hhcurveto
          -412 -321 -378 -485 -378 217 -242 337 251 219 143 224 130 hvcurveto
          2 hlineto
          82 498 rmoveto
          -457 -300 -361 -383 -308 -197 223 350 456 300 360 383 307 198 -223 -348 vhcurveto
          endchar
        </CharString>
        <CharString name="Oacute">
          329 899 1416 -106 callsubr
          217 1574 -81 callsubr
        </CharString>
        <CharString name="Obreve">
          329 899 1416 -106 callsubr
          -47 1791 -75 callsubr
          endchar
        </CharString>
        <CharString name="Ocaron">
          329 899 1416 -106 callsubr
          172 1574 -84 callsubr
        </CharString>
        <CharString name="Ocircumflex">
          329 899 1416 -106 callsubr
          267 1861 -63 callgsubr
        </CharString>
        <CharString name="Ocircumflexacute">
          329 899 1416 -106 callsubr
          207 1779 -54 callsubr
          127 -5 rmoveto
          65 hlineto
          254 101 callgsubr
        </CharString>
        <CharString name="Ocircumflexdotbelow">
          329 899 1416 -106 callsubr
          267 1861 -74 callgsubr
          -526 -1826 -101 callgsubr
        </CharString>
        <CharString name="Ocircumflexgrave">
          329 899 1416 -106 callsubr
          207 1779 -54 callsubr
          330 -5 rmoveto
          -182 27 callsubr
          endchar
        </CharString>
        <CharString name="Ocircumflexhookabove">
          329 899 1416 -106 callsubr
          207 1779 -54 callsubr
          80 134 rmoveto
          13 24 43 10 37 hhcurveto
          62 37 -30 -53 -42 -24 -34 -44 -23 hvcurveto
          24 -32 rlineto
          58 31 32 49 60 vvcurveto
          68 -57 47 -81 -41 -42 -11 -11 -19 vhcurveto
          endchar
        </CharString>
        <CharString name="Ocircumflextilde">
          329 899 1416 -106 callsubr
          371 1845 -37 callsubr
        </CharString>
        <CharString name="Ocyrillic">
          339 904 1416 -106 callsubr
          endchar
        </CharString>
        <CharString name="Odblgrave">
          329 899 1416 -106 callsubr
          35 1574 -45 callgsubr
          434 -287 -45 callgsubr
          endchar
        </CharString>
        <CharString name="Odieresis">
          329 899 1416 -106 callsubr
          73 1621 -105 callsubr
        </CharString>
        <CharString name="Odieresismacron">
          329 899 1416 -106 callsubr
          62 1679 -38 callsubr
        </CharString>
        <CharString name="Odotaccent">
          329 899 1416 -106 callsubr
          222 1674 -101 callgsubr
        </CharString>
        <CharString name="Odotaccentmacron">
          329 899 1416 -106 callsubr
          203 1576 23 callsubr
        </CharString>
        <CharString name="Odotbelow">
          329 899 1416 -106 callsubr
          -62 -252 -101 callgsubr
        </CharString>
        <CharString name="Ograve">
          329 899 1416 -106 callsubr
          153 1574 -45 callgsubr
          endchar
        </CharString>
        <CharString name="Ohookabove">
          329 899 1416 -106 callsubr
          61 1772 -62 callsubr
        </CharString>
        <CharString name="Ohorn">
          -89 callsubr
          endchar
        </CharString>
        <CharString name="Ohornacute">
          -89 callsubr
          -495 711 -81 callsubr
        </CharString>
        <CharString name="Ohorndotbelow">
          -89 callsubr
          -774 -1115 -101 callgsubr
        </CharString>
        <CharString name="Ohorngrave">
          -89 callsubr
          -558 711 -45 callgsubr
          endchar
        </CharString>
        <CharString name="Ohornhookabove">
          -89 callsubr
          -651 909 -62 callsubr
        </CharString>
        <CharString name="Ohorntilde">
          -89 callsubr
          -371 710 -103 callgsubr
          endchar
        </CharString>
        <CharString name="Ohungarumlaut">
          329 899 1416 -106 callsubr
          348 1574 8 callsubr
        </CharString>
        <CharString name="Oinvertedbreve">
          329 899 1416 -106 callsubr
          458 1573 -56 callsubr
        </CharString>
        <CharString name="Omacron">
          329 899 1416 -106 callsubr
          504 1679 -75 callgsubr
        </CharString>
        <CharString name="Omacronacute">
          329 899 1416 -106 callsubr
          492 99 callsubr
          266 142 rmoveto
          65 49 callsubr
          endchar
        </CharString>
        <CharString name="Omacrongrave">
          329 899 1416 -106 callsubr
          492 99 callsubr
          361 142 100 callgsubr
          endchar
        </CharString>
        <CharString name="Omegagreek">
          460 857 hmoveto
          -3 callsubr
        </CharString>
        <CharString name="Omegatonosgreek">
          487 193 16 callgsubr
          545 -1443 rmoveto
          -3 callsubr
        </CharString>
        <CharString name="Omicrongreek">
          329 899 1416 -106 callsubr
          endchar
        </CharString>
        <CharString name="Omicrontonosgreek">
          377 193 16 callgsubr
          608 -27 -106 callsubr
          endchar
        </CharString>
        <CharString name="Oogonek">
          -14 callgsubr
          endchar
        </CharString>
        <CharString name="Oogonekmacron">
          -14 callgsubr
          -169 814 -75 callgsubr
        </CharString>
        <CharString name="Oslash">
          329 1327 1198 rmoveto
          59 -91 33 -117 -137 vvcurveto
          -464 -297 -362 -380 -171 -140 66 117 -92 vhcurveto
          -25 35 rmoveto
          -59 91 -33 117 137 vvcurveto
          464 297 362 380 171 140 -66 -117 92 vhcurveto
          226 166 rmoveto
          -31 30 -160 -160 rlineto
          123 -100 -151 71 -183 hhcurveto
          -416 -316 -380 -499 -149 38 -127 68 -100 hvcurveto
          -164 -164 31 -30 159 159 rlineto
          -122 100 152 -71 183 hhcurveto
          415 316 380 499 148 -38 128 -68 99 hvcurveto
          endchar
        </CharString>
        <CharString name="Oslashacute">
          329 1314 1841 rmoveto
          -70 hlineto
          -352 -287 rlineto
          63 hlineto
          372 -356 rmoveto
          59 -91 33 -117 -137 vvcurveto
          -464 -297 -362 -380 -171 -140 66 117 -92 vhcurveto
          -25 35 rmoveto
          -59 91 -33 117 137 vvcurveto
          464 297 362 380 171 140 -66 -117 92 vhcurveto
          226 166 rmoveto
          -31 30 -160 -160 rlineto
          123 -100 -151 71 -183 hhcurveto
          -416 -316 -380 -499 -149 38 -127 68 -100 hvcurveto
          -164 -164 31 -30 159 159 rlineto
          -122 100 152 -71 183 hhcurveto
          415 316 380 499 148 -38 128 -68 99 hvcurveto
          endchar
        </CharString>
        <CharString name="Otilde">
          329 899 1416 -106 callsubr
          341 1573 -103 callgsubr
          endchar
        </CharString>
        <CharString name="Otildeacute">
          329 899 1416 -106 callsubr
          213 1812 rmoveto
          63 hlineto
          210 165 rlineto
          -69 hlineto
          -106 -405 -44 callsubr
          endchar
        </CharString>
        <CharString name="Otildedieresis">
          329 899 1416 -106 callsubr
          311 1572 -44 callsubr
          -181 396 rmoveto
          47 callgsubr
          276 hmoveto
          47 callgsubr
          endchar
        </CharString>
        <CharString name="Otildemacron">
          329 899 1416 -106 callsubr
          552 1908 21 callsubr
          -232 -293 -44 callsubr
          endchar
        </CharString>
        <CharString name="P">
          31 392 1443 -69 callsubr
          endchar
        </CharString>
        <CharString name="Pacute">
          31 392 1443 -69 callsubr
          513 906 -81 callsubr
        </CharString>
        <CharString name="Pdotaccent">
          31 392 1443 -69 callsubr
          518 1006 -101 callgsubr
        </CharString>
        <CharString name="Pecyrillic">
          201 1122 hmoveto
          -51 callgsubr
          -1037 hlineto
          57 callsubr
          937 58 callsubr
        </CharString>
        <CharString name="Phigreek">
          527 728 -59 rmoveto
          50 hlineto
          27 126 rlineto
          571 2 316 337 425 vvcurveto
          318 -216 216 -391 15 vhcurveto
          23 110 -10 callsubr
          -23 -110 rlineto
          -571 -2 -316 -336 -425 vvcurveto
          -318 216 -216 391 -16 vhcurveto
          10 47 rmoveto
          -387 11 -180 209 286 vvcurveto
          394 293 310 534 9 vhcurveto
          -210 -1219 rmoveto
          260 1219 rlineto
          387 -11 180 -208 -286 vvcurveto
          -394 -293 -311 -534 -9 vhcurveto
          endchar
        </CharString>
        <CharString name="Pigreek">
          290 1162 hmoveto
          -51 callgsubr
          -1028 hlineto
          57 callsubr
          928 58 callsubr
        </CharString>
        <CharString name="Psigreek">
          434 746 hmoveto
          76 357 391 1 213 156 94 441 rlinecurve
          103 488 -10 callsubr
          -103 -484 -81 -383 -172 -163 -386 -9 rlinecurve
          221 1039 -11 callgsubr
          -222 -1039 rlineto
          -269 1 -160 138 238 vvcurveto
          41 6 45 10 49 vhcurveto
          112 527 -10 callsubr
          -112 -527 rlineto
          -11 -48 -5 -46 -46 vvcurveto
          -256 179 -161 290 -2 vhcurveto
          -75 -357 rlineto
          endchar
        </CharString>
        <CharString name="Q">
          329 1179 -182 rmoveto
          -125 242 rlineto
          250 138 165 299 362 vvcurveto
          365 -229 239 -337 -416 -316 -380 -499 -365 230 -239 337 97 92 21 39 84 vhcurveto
          114 -222 rlineto
          -383 209 rmoveto
          -311 -209 218 345 464 297 362 380 311 209 -218 -345 -337 -156 -282 -231 -130 hvcurveto
          -133 256 rlineto
          -53 hlineto
          144 -278 rlineto
          -36 -77 -83 -19 -88 hhcurveto
          endchar
        </CharString>
        <CharString name="R">
          -92 callsubr
          endchar
        </CharString>
        <CharString name="Racute">
          -92 callsubr
          506 875 -81 callsubr
        </CharString>
        <CharString name="Rcaron">
          -92 callsubr
          461 875 -84 callsubr
        </CharString>
        <CharString name="Rcommaaccent">
          -92 callsubr
          64 -1154 -36 callsubr
        </CharString>
        <CharString name="Rdblgrave">
          -92 callsubr
          325 875 -45 callgsubr
          434 -287 -45 callgsubr
          endchar
        </CharString>
        <CharString name="Rdotaccent">
          -92 callsubr
          511 975 -101 callgsubr
        </CharString>
        <CharString name="Rdotbelow">
          -92 callsubr
          201 -951 -101 callgsubr
        </CharString>
        <CharString name="Rdotbelowmacron">
          -92 callsubr
          201 -951 -102 callgsubr
          592 1931 -75 callgsubr
        </CharString>
        <CharString name="Rhogreek">
          31 392 1443 -69 callsubr
          endchar
        </CharString>
        <CharString name="Rinvertedbreve">
          -92 callsubr
          747 874 -56 callsubr
        </CharString>
        <CharString name="Rlinebelow">
          -92 callsubr
          492 -903 -75 callgsubr
        </CharString>
        <CharString name="S">
          80 114 401 rmoveto
          -102 callsubr
          endchar
        </CharString>
        <CharString name="Sacute">
          80 114 401 rmoveto
          -102 callsubr
          658 1153 -81 callsubr
        </CharString>
        <CharString name="Sacutedotaccent">
          80 114 401 rmoveto
          -102 callsubr
          716 1153 rmoveto
          359 -1 callgsubr
          -70 hlineto
          -352 -287 rlineto
          -124 114 -101 callgsubr
        </CharString>
        <CharString name="Scaron">
          80 114 401 rmoveto
          -102 callsubr
          614 1153 -84 callsubr
        </CharString>
        <CharString name="Scarondotaccent">
          80 114 401 rmoveto
          -102 callsubr
          612 1152 41 callsubr
        </CharString>
        <CharString name="Scedilla">
          80 1256 1068 rmoveto
          234 -16 -198 161 -267 hhcurveto
          -270 -190 -148 -212 -165 99 -100 246 -98 hvcurveto
          130 -51 rlineto
          201 -80 85 -89 -142 vvcurveto
          -211 -176 -140 -259 -274 -192 151 223 -11 vhcurveto
          -50 hlineto
          8 -236 190 -165 275 -18 -83 -125 rcurveline
          -8 -33 50 -5 rlineto
          90 -8 52 -39 -69 vvcurveto
          -78 -65 -43 -90 -66 -49 15 25 -42 vhcurveto
          -9 -44 rlineto
          -25 43 53 -16 69 hhcurveto
          119 85 64 106 90 -68 53 -115 9 hvcurveto
          80 121 rlineto
          2 3 0 2 hhcurveto
          292 195 164 235 164 -94 105 -219 85 hvcurveto
          -133 52 rlineto
          -226 89 -89 86 144 vvcurveto
          183 167 129 241 240 176 -144 -204 16 vhcurveto
          endchar
        </CharString>
        <CharString name="Scircumflex">
          80 114 401 rmoveto
          -102 callsubr
          709 1440 -63 callgsubr
        </CharString>
        <CharString name="Scommaaccent">
          80 114 401 rmoveto
          -102 callsubr
          274 -876 -36 callsubr
        </CharString>
        <CharString name="Sdotaccent">
          80 114 401 rmoveto
          -102 callsubr
          664 1253 -101 callgsubr
        </CharString>
        <CharString name="Sdotbelow">
          80 114 401 rmoveto
          -102 callsubr
          411 -673 -101 callgsubr
        </CharString>
        <CharString name="Sdotbelowdotaccent">
          80 114 401 rmoveto
          -102 callsubr
          411 -673 -102 callgsubr
          253 1926 -101 callgsubr
        </CharString>
        <CharString name="Shacyrillic">
          633 85 hmoveto
          1469 3 callgsubr
          -297 -1396 rlineto
          -660 91 callsubr
          -659 63 callgsubr
          -50 hlineto
          endchar
        </CharString>
        <CharString name="Shchacyrillic">
          707 1682 -285 rmoveto
          71 332 rlineto
          -189 63 callgsubr
          -50 -6 callgsubr
          -660 91 callsubr
          -659 63 callgsubr
          -50 -99 callsubr
          1609 hlineto
          -61 -285 rlineto
          endchar
        </CharString>
        <CharString name="Sigmagreek">
          142 153 50 rmoveto
          595 696 3 13 -304 634 1 4 rlineto
          902 hlineto
          10 46 rlineto
          -961 hlineto
          -9 -45 304 -638 -611 -718 -10 -42 rlineto
          1001 hlineto
          10 46 rlineto
          -931 hlineto
          endchar
        </CharString>
        <CharString name="Softsigncyrillic">
          28 673 794 rmoveto
          228 145 -120 -190 -260 -199 -177 -289 hvcurveto
          -413 hlineto
          159 747 rlineto
          -219 -794 rmoveto
          474 hlineto
          320 218 196 292 212 -168 140 -249 hvcurveto
          -366 hlineto
          128 603 -10 callsubr
          endchar
        </CharString>
        <CharString name="T">
          36 546 64 callsubr
        </CharString>
        <CharString name="Taugreek">
          36 546 64 callsubr
        </CharString>
        <CharString name="Tbar">
          36 1364 1396 rmoveto
          10 47 rlineto
          -1092 hlineto
          -10 -47 rlineto
          521 hlineto
          -138 -650 rlineto
          -406 hlineto
          -10 -46 rlineto
          406 hlineto
          -149 -700 rlineto
          50 hlineto
          149 700 rlineto
          417 hlineto
          10 46 rlineto
          -417 hlineto
          138 650 rlineto
          endchar
        </CharString>
        <CharString name="Tcaron">
          36 546 -49 callgsubr
          338 1554 -84 callsubr
        </CharString>
        <CharString name="Tcedilla">
          36 282 1443 rmoveto
          -10 -47 rlineto
          521 hlineto
          -297 -1396 rlineto
          6 hlineto
          -96 -143 -8 -33 50 -5 rlineto
          90 -8 52 -39 -69 vvcurveto
          -78 -65 -43 -90 -66 -49 15 25 -42 vhcurveto
          -9 -44 rlineto
          -25 43 53 -16 69 hhcurveto
          119 85 64 106 90 -68 53 -115 9 hvcurveto
          93 141 3 14 rlineto
          -2 hlineto
          294 1382 rlineto
          521 hlineto
          10 47 rlineto
          endchar
        </CharString>
        <CharString name="Tcircumflexbelow">
          36 546 -49 callgsubr
          7 -165 -59 callsubr
        </CharString>
        <CharString name="Tcommaaccent">
          36 546 -49 callgsubr
          -158 -475 -36 callsubr
        </CharString>
        <CharString name="Tdotaccent">
          36 546 -49 callgsubr
          388 1654 -101 callgsubr
        </CharString>
        <CharString name="Tdotbelow">
          36 546 -49 callgsubr
          -21 -272 -101 callgsubr
        </CharString>
        <CharString name="Tecyrillic">
          46 551 64 callsubr
        </CharString>
        <CharString name="Thetagreek">
          446 1236 707 rmoveto
          10 46 rlineto
          -707 hlineto
          -10 -46 rlineto
          273 -727 rmoveto
          415 316 380 499 365 -230 239 -337 -415 -316 -380 -499 -365 230 -239 337 hvcurveto
          681 873 rmoveto
          -464 -297 -362 -381 -310 -210 218 345 464 297 362 381 310 210 -218 -345 vhcurveto
          endchar
        </CharString>
        <CharString name="Thorn">
          26 71 hmoveto
          51 hlineto
          75 355 rlineto
          426 hlineto
          336 199 191 271 180 -146 155 -244 hvcurveto
          -401 hlineto
          62 291 rlineto
          -51 hlineto
          -21 -338 rmoveto
          401 hlineto
          232 118 -138 -157 -234 -179 -175 -298 hvcurveto
          -423 hlineto
          endchar
        </CharString>
        <CharString name="Tlinebelow">
          36 546 -49 callgsubr
          270 -224 -75 callgsubr
        </CharString>
        <CharString name="Tsecyrillic">
          264 1237 -285 rmoveto
          71 332 rlineto
          -190 hlineto
          298 1396 rlineto
          -51 hlineto
          -297 61 callsubr
        </CharString>
        <CharString name="Tshecyrillic">
          505 1117 809 rmoveto
          216 138 -145 -277 -59 hvcurveto
          -83 -387 rlineto
          51 hlineto
          82 385 rlineto
          293 62 -142 178 -261 hhcurveto
          -180 -146 -77 -76 -87 hvcurveto
          -9 hlineto
          148 693 rlineto
          522 -3 callgsubr
          -1092 43 callsubr
          520 -6 callgsubr
          50 hlineto
          114 callsubr
          rlineto
          49 50 160 127 223 hhcurveto
          endchar
        </CharString>
        <CharString name="U">
          -104 callsubr
          endchar
        </CharString>
        <CharString name="Uacute">
          -104 callsubr
          312 1574 -81 callsubr
        </CharString>
        <CharString name="Ubreve">
          -104 callsubr
          48 1791 -75 callsubr
          endchar
        </CharString>
        <CharString name="Ucaron">
          -104 callsubr
          267 1574 -84 callsubr
        </CharString>
        <CharString name="Ucircumflex">
          -104 callsubr
          362 1861 -63 callgsubr
        </CharString>
        <CharString name="Ucircumflexbelow">
          -104 callsubr
          -25 -145 -59 callsubr
        </CharString>
        <CharString name="Ucyrillic">
          -70 callgsubr
          endchar
        </CharString>
        <CharString name="Udblgrave">
          -104 callsubr
          131 1574 -45 callgsubr
          434 -287 -45 callgsubr
          endchar
        </CharString>
        <CharString name="Udieresis">
          -104 callsubr
          168 1621 -105 callsubr
        </CharString>
        <CharString name="Udieresisacute">
          -104 callsubr
          271 1774 rmoveto
          64 49 callsubr
          -365 -404 -32 callgsubr
        </CharString>
        <CharString name="Udieresisbelow">
          -104 callsubr
          -201 -297 rmoveto
          29 25 24 -20 callsubr
          -22 callgsubr
          277 hmoveto
          29 25 24 -20 callsubr
          -22 callgsubr
          endchar
        </CharString>
        <CharString name="Udieresiscaron">
          -104 callsubr
          309 1773 20 callgsubr
        </CharString>
        <CharString name="Udieresisgrave">
          -104 callsubr
          350 1774 100 callgsubr
          -135 -201 -32 callgsubr
        </CharString>
        <CharString name="Udieresismacron">
          -104 callsubr
          157 1679 -38 callsubr
        </CharString>
        <CharString name="Udotbelow">
          -104 callsubr
          -53 -252 -101 callgsubr
        </CharString>
        <CharString name="Ugrave">
          -104 callsubr
          249 1574 -45 callgsubr
          endchar
        </CharString>
        <CharString name="Uhookabove">
          -104 callsubr
          156 1772 -62 callsubr
        </CharString>
        <CharString name="Uhorn">
          -86 callgsubr
          endchar
        </CharString>
        <CharString name="Uhornacute">
          -86 callgsubr
          306 1574 -81 callsubr
        </CharString>
        <CharString name="Uhorndotbelow">
          -86 callgsubr
          -98 -252 -101 callgsubr
        </CharString>
        <CharString name="Uhorngrave">
          -86 callgsubr
          243 1574 -45 callgsubr
          endchar
        </CharString>
        <CharString name="Uhornhookabove">
          -86 callgsubr
          151 1772 -62 callsubr
        </CharString>
        <CharString name="Uhorntilde">
          -86 callgsubr
          431 1573 -103 callgsubr
          endchar
        </CharString>
        <CharString name="Uhungarumlaut">
          -104 callsubr
          444 1574 8 callsubr
        </CharString>
        <CharString name="Uinvertedbreve">
          -104 callsubr
          553 1573 -56 callsubr
        </CharString>
        <CharString name="Umacron">
          -104 callsubr
          599 1679 -75 callgsubr
        </CharString>
        <CharString name="Umacrondieresis">
          -104 callsubr
          587 1632 32 callsubr
        </CharString>
        <CharString name="Uogonek">
          230 796 -371 rmoveto
          9 44 rlineto
          -8 -13 -23 -4 -32 hhcurveto
          -69 -51 45 60 118 169 64 170 100 hvcurveto
          128 75 121 120 48 221 211 979 rcurveline
          -51 hlineto
          -210 -973 rlineto
          -271 -58 -209 -172 -269 hhcurveto
          -272 -163 144 236 37 6 52 8 41 hvcurveto
          194 906 rlineto
          -51 hlineto
          -194 -903 rlineto
          -10 -46 -4 -41 -50 vvcurveto
          -259 1 183 -164 298 hhcurveto
          32 45 5 10 37 hvcurveto
          -4 vlineto
          -147 -77 -62 -70 -87 vvcurveto
          -81 64 -59 91 27 30 5 7 16 vhcurveto
          endchar
        </CharString>
        <CharString name="Upsilondieresisgreek">
          37 548 hmoveto
          -83 callsubr
          237 1601 -105 callsubr
        </CharString>
        <CharString name="Upsilongreek">
          37 548 hmoveto
          -83 callsubr
          endchar
        </CharString>
        <CharString name="Upsilontonosgreek">
          308 283 16 callgsubr
          389 -1443 55 callgsubr
        </CharString>
        <CharString name="Uring">
          -104 callsubr
          322 1586 -86 callsubr
        </CharString>
        <CharString name="Ushortcyrillic">
          -70 callgsubr
          412 1789 -78 callgsubr
        </CharString>
        <CharString name="Utilde">
          -104 callsubr
          436 1573 -103 callgsubr
          endchar
        </CharString>
        <CharString name="Utildeacute">
          -104 callsubr
          308 1812 rmoveto
          63 hlineto
          210 165 rlineto
          -69 hlineto
          -106 -405 -44 callsubr
          endchar
        </CharString>
        <CharString name="Utildebelow">
          -104 callsubr
          66 -350 -103 callgsubr
          endchar
        </CharString>
        <CharString name="V">
          22 callsubr
          endchar
        </CharString>
        <CharString name="Vdotbelow">
          22 callsubr
          -20 -272 -101 callgsubr
        </CharString>
        <CharString name="Vecyrillic">
          72 577 -87 callsubr
          endchar
        </CharString>
        <CharString name="Vtilde">
          22 callsubr
          505 1553 -103 callgsubr
          endchar
        </CharString>
        <CharString name="W">
          637 1103 -76 callsubr
          endchar
        </CharString>
        <CharString name="Wacute">
          636 1103 -76 callsubr
          753 1554 -81 callsubr
        </CharString>
        <CharString name="Wcircumflex">
          636 1103 -76 callsubr
          803 1841 -63 callgsubr
        </CharString>
        <CharString name="Wdieresis">
          636 1103 -76 callsubr
          609 1601 -105 callsubr
        </CharString>
        <CharString name="Wdotaccent">
          636 1103 -76 callsubr
          758 1654 -101 callgsubr
        </CharString>
        <CharString name="Wdotbelow">
          636 1103 -76 callsubr
          336 -272 -101 callgsubr
        </CharString>
        <CharString name="Wgrave">
          636 1103 -76 callsubr
          689 1554 -45 callgsubr
          endchar
        </CharString>
        <CharString name="X">
          49 -29 38 callsubr
        </CharString>
        <CharString name="Xacyrillic">
          59 -24 38 callsubr
        </CharString>
        <CharString name="Xdieresis">
          49 -29 hmoveto
          -50 callgsubr
          90 875 -105 callsubr
        </CharString>
        <CharString name="Xdotaccent">
          49 -29 hmoveto
          -50 callgsubr
          239 928 -101 callgsubr
        </CharString>
        <CharString name="Xigreek">
          169 389 85 callsubr
          -11 -51 rlineto
          1009 hlineto
          11 51 rlineto
          -213 -725 rmoveto
          11 51 rlineto
          -892 hlineto
          -11 -51 rlineto
          -200 -667 rmoveto
          -10 -51 rlineto
          1009 hlineto
          9 51 rlineto
          endchar
        </CharString>
        <CharString name="Y">
          38 548 hmoveto
          -83 callsubr
          endchar
        </CharString>
        <CharString name="Yacute">
          37 548 hmoveto
          -83 callsubr
          381 1554 -81 callsubr
        </CharString>
        <CharString name="Ycircumflex">
          37 548 hmoveto
          -83 callsubr
          431 1841 -63 callgsubr
        </CharString>
        <CharString name="Ydieresis">
          37 548 hmoveto
          -83 callsubr
          237 1601 -105 callsubr
        </CharString>
        <CharString name="Ydotaccent">
          37 548 hmoveto
          -83 callsubr
          386 1654 -101 callgsubr
        </CharString>
        <CharString name="Ydotbelow">
          37 548 hmoveto
          -83 callsubr
          -22 -272 -101 callgsubr
        </CharString>
        <CharString name="Yericyrillic">
          -68 callsubr
          endchar
        </CharString>
        <CharString name="Ygrave">
          37 548 hmoveto
          -83 callsubr
          318 1554 -45 callgsubr
          endchar
        </CharString>
        <CharString name="Yhookabove">
          37 548 hmoveto
          -83 callsubr
          225 1752 -62 callsubr
        </CharString>
        <CharString name="Yicyrillic">
          -786 135 hmoveto
          -89 callgsubr
          239 1601 -105 callsubr
        </CharString>
        <CharString name="Yicyrillic.1">
          -270 858 1601 rmoveto
          30 24 24 30 29 -24 24 -30 -29 -25 -24 -29 -30 25 -24 29 hvcurveto
          -277 0 rmoveto
          29 25 24 30 29 -25 24 -29 -29 -25 -24 -29 -30 25 -24 29 hvcurveto
          425 -204 rmoveto
          9 46 rlineto
          -315 hlineto
          -50 hlineto
          -316 hlineto
          -10 -46 rlineto
          316 hlineto
          -287 -1351 rlineto
          -317 hlineto
          -9 -46 rlineto
          316 hlineto
          50 hlineto
          315 hlineto
          10 46 rlineto
          -315 hlineto
          287 1351 rlineto
          endchar
        </CharString>
        <CharString name="Ymacron">
          37 548 hmoveto
          -83 callsubr
          668 1659 -75 callgsubr
        </CharString>
        <CharString name="Ytilde">
          37 548 hmoveto
          -83 callsubr
          505 1553 -103 callgsubr
          endchar
        </CharString>
        <CharString name="Z">
          46 16 hmoveto
          -60 callgsubr
          endchar
        </CharString>
        <CharString name="Zacute">
          45 16 hmoveto
          -60 callgsubr
          857 1512 -81 callsubr
        </CharString>
        <CharString name="Zcaron">
          45 16 hmoveto
          -60 callgsubr
          813 1512 -84 callsubr
        </CharString>
        <CharString name="Zcircumflex">
          45 16 hmoveto
          -60 callgsubr
          908 1799 -63 callgsubr
        </CharString>
        <CharString name="Zdotaccent">
          45 16 hmoveto
          -60 callgsubr
          863 1612 -101 callgsubr
        </CharString>
        <CharString name="Zdotbelow">
          45 16 hmoveto
          -60 callgsubr
          458 -314 -101 callgsubr
        </CharString>
        <CharString name="Zecyrillic">
          51 474 726 -84 callgsubr
          endchar
        </CharString>
        <CharString name="Zetagreek">
          45 16 hmoveto
          -60 callgsubr
          endchar
        </CharString>
        <CharString name="Zhecyrillic">
          626 946 -41 callgsubr
          endchar
        </CharString>
        <CharString name="Zlinebelow">
          45 16 hmoveto
          -60 callgsubr
          749 -266 -75 callgsubr
        </CharString>
        <CharString name="a">
          -141 413 -107 callgsubr
          endchar
        </CharString>
        <CharString name="a.1">
          -17 497 -106 callgsubr
          endchar
        </CharString>
        <CharString name="aacute">
          -141 413 -107 callgsubr
          299 1266 -76 callgsubr
        </CharString>
        <CharString name="aacute.1">
          -17 497 -106 callgsubr
          -97 1251 -76 callgsubr
        </CharString>
        <CharString name="abreve">
          -141 413 -107 callgsubr
          31 1502 -67 callsubr
        </CharString>
        <CharString name="abreve.1">
          -17 497 -106 callgsubr
          -365 5 callgsubr
        </CharString>
        <CharString name="abreveacute">
          -141 413 -107 callgsubr
          231 1484 36 callsubr
          -11 -324 -82 callsubr
          endchar
        </CharString>
        <CharString name="abreveacute.1">
          -17 497 -106 callgsubr
          -165 1469 36 callsubr
          -11 -324 -82 callsubr
          endchar
        </CharString>
        <CharString name="abrevedotbelow">
          -141 413 -107 callgsubr
          31 1502 -80 callgsubr
          -68 -1759 -101 callgsubr
        </CharString>
        <CharString name="abrevedotbelow.1">
          -17 497 -106 callgsubr
          -365 1487 -80 callgsubr
          -108 -1759 -101 callgsubr
        </CharString>
        <CharString name="abrevegrave">
          -141 413 -107 callgsubr
          338 1490 1 callsubr
          245 -21 -82 callsubr
          endchar
        </CharString>
        <CharString name="abrevegrave.1">
          -17 497 -106 callgsubr
          -58 1475 1 callsubr
          245 -21 -82 callsubr
          endchar
        </CharString>
        <CharString name="abrevehookabove">
          -141 413 -107 callgsubr
          166 1656 rmoveto
          14 25 39 9 37 hhcurveto
          62 36 -32 -51 -52 -40 -44 -65 -20 hvcurveto
          22 -33 rlineto
          77 25 52 60 71 vvcurveto
          69 -57 49 -82 -35 -42 -10 -13 -20 vhcurveto
          359 -229 -82 callsubr
          endchar
        </CharString>
        <CharString name="abrevehookabove.1">
          -17 497 -106 callgsubr
          -230 1641 rmoveto
          14 25 39 9 37 hhcurveto
          62 36 -32 -51 -52 -40 -44 -65 -20 hvcurveto
          22 -33 rlineto
          77 25 52 60 71 vvcurveto
          69 -57 49 -82 -35 -42 -10 -13 -20 vhcurveto
          359 -229 -82 callsubr
          endchar
        </CharString>
        <CharString name="abrevetilde">
          -141 413 -107 callgsubr
          534 1469 -82 callsubr
          -81 124 rmoveto
          81 60 67 106 13 hvcurveto
          -44 hlineto
          -75 -7 -47 -55 -54 -98 -23 149 -119 hhcurveto
          -84 -67 -74 -99 -8 hvcurveto
          45 hlineto
          72 6 48 58 58 98 22 -149 120 hhcurveto
          endchar
        </CharString>
        <CharString name="abrevetilde.1">
          -17 497 -106 callgsubr
          138 1454 -82 callsubr
          -81 124 rmoveto
          81 60 67 106 13 hvcurveto
          -44 hlineto
          -75 -7 -47 -55 -54 -98 -23 149 -119 hhcurveto
          -84 -67 -74 -99 -8 hvcurveto
          45 hlineto
          72 6 48 58 58 98 22 -149 120 hhcurveto
          endchar
        </CharString>
        <CharString name="acaron">
          -141 413 -107 callgsubr
          297 1266 -79 callgsubr
        </CharString>
        <CharString name="acaron.1">
          -17 497 -106 callgsubr
          -99 1251 -79 callgsubr
        </CharString>
        <CharString name="acircumflex">
          -141 413 -107 callgsubr
          356 1570 -55 callsubr
        </CharString>
        <CharString name="acircumflex.1">
          -17 497 -106 callgsubr
          -40 11 callgsubr
        </CharString>
        <CharString name="acircumflexacute">
          -141 413 -107 callgsubr
          346 1526 15 callsubr
        </CharString>
        <CharString name="acircumflexacute.1">
          -17 497 -106 callgsubr
          -50 1511 15 callsubr
        </CharString>
        <CharString name="acircumflexdotbelow">
          -141 413 -107 callgsubr
          356 1570 -74 callsubr
          -535 -1523 -101 callgsubr
        </CharString>
        <CharString name="acircumflexdotbelow.1">
          -17 497 -106 callgsubr
          -40 1555 -74 callsubr
          -575 -1523 -101 callgsubr
        </CharString>
        <CharString name="acircumflexgrave">
          -141 413 -107 callgsubr
          661 1490 1 callsubr
          -266 36 -77 callgsubr
          endchar
        </CharString>
        <CharString name="acircumflexgrave.1">
          -17 497 -106 callgsubr
          265 1475 1 callsubr
          -266 36 -77 callgsubr
          endchar
        </CharString>
        <CharString name="acircumflexhookabove">
          -141 413 -107 callgsubr
          420 1691 -47 callsubr
        </CharString>
        <CharString name="acircumflexhookabove.1">
          -17 497 -106 callgsubr
          24 1676 -47 callsubr
        </CharString>
        <CharString name="acircumflextilde">
          -141 413 -107 callgsubr
          346 1526 -52 callsubr
        </CharString>
        <CharString name="acircumflextilde.1">
          -17 497 -106 callgsubr
          -50 1511 -52 callsubr
        </CharString>
        <CharString name="acute">
          -296 510 1251 -76 callgsubr
        </CharString>
        <CharString name="acutecmb">
          245 1251 -76 callgsubr
        </CharString>
        <CharString name="acutecmb.short">
          302 1554 -81 callsubr
        </CharString>
        <CharString name="acutedotaccentcmb">
          323 1251 rmoveto
          313 304 rlineto
          -64 hlineto
          -308 -304 rlineto
          -140 38 -71 callsubr
        </CharString>
        <CharString name="acutedotaccentcmb.short">
          364 1554 rmoveto
          359 -1 callgsubr
          -70 hlineto
          -352 -287 rlineto
          -124 114 -101 callgsubr
        </CharString>
        <CharString name="acyrillic">
          -141 413 -107 callgsubr
          endchar
        </CharString>
        <CharString name="acyrillic.1">
          -62 449 -106 callgsubr
          endchar
        </CharString>
        <CharString name="adblgrave">
          -141 413 -107 callgsubr
          195 1266 -39 callgsubr
        </CharString>
        <CharString name="adblgrave.1">
          -17 497 -106 callgsubr
          -201 1251 -39 callgsubr
        </CharString>
        <CharString name="adieresis">
          -141 413 -107 callgsubr
          141 1266 -105 callsubr
        </CharString>
        <CharString name="adieresis.1">
          -17 497 -106 callgsubr
          -255 1251 -105 callsubr
        </CharString>
        <CharString name="adieresismacron">
          -141 413 -107 callgsubr
          135 1233 -36 callgsubr
        </CharString>
        <CharString name="adieresismacron.1">
          -17 497 -106 callgsubr
          -261 1218 -36 callgsubr
        </CharString>
        <CharString name="adotaccent">
          -141 413 -107 callgsubr
          279 1266 -71 callsubr
        </CharString>
        <CharString name="adotaccent.1">
          -17 497 -106 callgsubr
          -117 1251 -71 callsubr
        </CharString>
        <CharString name="adotbelow">
          -141 413 -107 callgsubr
          9 -257 -101 callgsubr
        </CharString>
        <CharString name="adotbelow.1">
          -17 497 -106 callgsubr
          -427 -272 -101 callgsubr
        </CharString>
        <CharString name="adotmacron">
          -141 413 -107 callgsubr
          276 1232 3 callsubr
        </CharString>
        <CharString name="adotmacron.1">
          -17 497 -106 callgsubr
          -120 1217 3 callsubr
        </CharString>
        <CharString name="ae">
          694 1295 -93 callsubr
          endchar
        </CharString>
        <CharString name="aeacute">
          694 1295 -93 callsubr
          694 1221 -76 callgsubr
        </CharString>
        <CharString name="aemacron">
          694 1295 -93 callsubr
          934 1316 -73 callsubr
        </CharString>
        <CharString name="agrave">
          -141 413 -107 callgsubr
          296 1266 -29 callgsubr
        </CharString>
        <CharString name="agrave.1">
          -17 497 -106 callgsubr
          -100 1251 -29 callgsubr
        </CharString>
        <CharString name="ahookabove">
          -141 413 -107 callgsubr
          161 1430 -61 callgsubr
        </CharString>
        <CharString name="ahookabove.1">
          -17 497 -106 callgsubr
          -235 1415 -61 callgsubr
        </CharString>
        <CharString name="ainvertedbreve">
          -141 413 -107 callgsubr
          527 1232 -56 callgsubr
        </CharString>
        <CharString name="ainvertedbreve.1">
          -17 497 -106 callgsubr
          131 1217 -56 callgsubr
        </CharString>
        <CharString name="alphagreek">
          -16 callgsubr
          endchar
        </CharString>
        <CharString name="alphatonosgreek">
          -16 callgsubr
          304 1157 27 callgsubr
        </CharString>
        <CharString name="amacron">
          -141 413 -107 callgsubr
          539 1361 -73 callsubr
        </CharString>
        <CharString name="amacron.1">
          -17 497 -106 callgsubr
          143 1346 -73 callsubr
        </CharString>
        <CharString name="ampersand">
          389 537 1155 rmoveto
          141 145 123 173 157 103 -92 -131 -143 -135 -122 -290 -108 vhcurveto
          -113 161 -40 88 83 vvcurveto
          40 -1130 rmoveto
          -217 -157 135 182 152 109 123 222 93 hvcurveto
          133 56 382 -549 rlineto
          -123 -138 -167 -69 -167 hhcurveto
          623 -25 rmoveto
          58 hlineto
          -146 211 125 130 100 177 31 151 rlinecurve
          19 91 -11 callgsubr
          -19 -89 -28 -135 -92 -166 -113 -123 rlinecurve
          -373 537 rlineto
          319 124 134 127 173 vvcurveto
          147 -126 109 -180 -211 -162 -141 -173 -91 44 -98 112 -157 vhcurveto
          -129 -55 rlineto
          -248 -104 -114 -132 -181 vvcurveto
          -198 185 -154 240 180 167 70 130 151 vhcurveto
          endchar
        </CharString>
        <CharString name="anoteleia">
          -598 414 934 12 callsubr
          endchar
        </CharString>
        <CharString name="aogonek">
          -141 411 30 rmoveto
          -166 -112 92 133 163 138 100 245 13 hvcurveto
          363 21 -42 -191 rlineto
          -187 -40 -177 -144 -209 hhcurveto
          309 -401 rmoveto
          9 42 rlineto
          -8 -15 -26 -4 -29 hhcurveto
          -69 -50 43 59 82 85 74 184 79 hvcurveto
          0 vlineto
          148 692 rlineto
          6 28 4 32 30 vvcurveto
          168 -133 110 -203 -220 -162 -121 -186 -38 vhcurveto
          51 hlineto
          160 34 139 100 193 hhcurveto
          180 109 -88 -147 -25 -4 -29 -6 -31 hvcurveto
          -20 -93 -371 -22 rlineto
          -276 -16 -157 -115 -192 vvcurveto
          -156 132 -110 190 170 152 90 130 74 vhcurveto
          4 -1 -40 -188 rlineto
          -185 -75 -89 -86 -101 vvcurveto
          -80 65 -58 89 27 32 5 8 16 vhcurveto
          endchar
        </CharString>
        <CharString name="aogonek.1">
          -17 497 30 rmoveto
          -203 -134 144 225 315 220 296 268 207 137 -148 -230 -317 -201 -285 -294 hvcurveto
          349 -391 rmoveto
          8 41 rlineto
          -4 -14 -28 -3 -27 hhcurveto
          -71 -47 41 60 84 79 70 169 68 hvcurveto
          8 3 221 1041 rlineto
          -48 24 callsubr
          -6 hlineto
          203 -17 -151 137 -203 hhcurveto
          -301 -239 -312 -349 -245 154 -164 224 174 171 103 166 90 hvcurveto
          4 hlineto
          -51 -238 rlineto
          -176 -69 -82 -79 -101 vvcurveto
          -81 63 -57 92 25 30 4 6 18 vhcurveto
          endchar
        </CharString>
        <CharString name="approxequal">
          72 877 563 -5 callsubr
        </CharString>
        <CharString name="approxequal.uc">
          72 919 759 -5 callsubr
        </CharString>
        <CharString name="aring">
          -141 413 -107 callgsubr
          285 1178 -86 callsubr
        </CharString>
        <CharString name="aring.1">
          -17 497 -106 callgsubr
          -111 1163 -86 callsubr
        </CharString>
        <CharString name="aringacute">
          -141 413 -107 callgsubr
          291 1619 -8 callgsubr
        </CharString>
        <CharString name="aringacute.1">
          -17 497 -106 callgsubr
          -105 1604 -8 callgsubr
        </CharString>
        <CharString name="aringbelow">
          -141 413 -107 callgsubr
          -1 -414 -86 callsubr
        </CharString>
        <CharString name="aringbelow.1">
          -17 497 -106 callgsubr
          -437 -429 -86 callsubr
        </CharString>
        <CharString name="asciicircum">
          -358 609 1328 rmoveto
          3 hlineto
          153 -530 rlineto
          51 hlineto
          -176 596 rlineto
          -41 hlineto
          -428 -596 rlineto
          58 hlineto
          endchar
        </CharString>
        <CharString name="asciitilde">
          72 861 547 rmoveto
          128 81 112 163 25 hvcurveto
          -48 hlineto
          -129 -20 -63 -100 -101 -137 -50 237 -162 hhcurveto
          -131 -88 -120 -156 -20 hvcurveto
          48 hlineto
          128 20 67 102 101 137 50 -237 163 hhcurveto
          endchar
        </CharString>
        <CharString name="asterisk">
          -163 922 863 rmoveto
          27 34 -256 193 314 135 -14 39 -315 -140 62 331 -44 4 -56 -331 -255 198 -26 -34 255 -192 -313 -133 13 -40 314 138 -60 -329 45 -4 55 330 rlineto
          endchar
        </CharString>
        <CharString name="asterisk.uc">
          72 1107 381 rmoveto
          27 35 -400 303 494 211 -17 42 -490 -211 91 513 -44 5 -90 -517 -401 306 -27 -35 401 -303 -494 -209 18 -42 490 212 -91 -515 43 -5 90 515 rlineto
          endchar
        </CharString>
        <CharString name="at">
          620 1059 1431 -33 callgsubr
        </CharString>
        <CharString name="at.uc">
          620 1085 1555 -33 callgsubr
        </CharString>
        <CharString name="atilde">
          -141 413 -107 callgsubr
          423 1266 -103 callgsubr
          endchar
        </CharString>
        <CharString name="atilde.1">
          -17 497 -106 callgsubr
          27 1251 -103 callgsubr
          endchar
        </CharString>
        <CharString name="austral">
          72 1067 hmoveto
          50 hlineto
          -81 474 rlineto
          161 hlineto
          9 45 rlineto
          -177 hlineto
          -38 220 rlineto
          262 59 callgsubr
          -279 hlineto
          -113 659 rlineto
          -51 hlineto
          -393 -659 rlineto
          -275 hlineto
          -9 -45 rlineto
          257 hlineto
          -131 -220 rlineto
          -173 51 callgsubr
          157 hlineto
          -283 -474 rlineto
          60 hlineto
          281 474 rlineto
          687 hlineto
          -156 899 rmoveto
          5 hlineto
          100 -589 rlineto
          -454 hlineto
          497 -265 rmoveto
          -653 hlineto
          131 220 rlineto
          485 hlineto
          endchar
        </CharString>
        <CharString name="b">
          -57 callgsubr
          endchar
        </CharString>
        <CharString name="backslash">
          -525 365 -299 103 callsubr
        </CharString>
        <CharString name="backslash.uc">
          -525 396 -150 103 callsubr
        </CharString>
        <CharString name="baht">
          72 501 46 rmoveto
          146 687 rlineto
          9 hlineto
          247 154 -116 -184 -222 -200 -165 -269 hvcurveto
          -474 0 rmoveto
          146 687 rlineto
          343 hlineto
          -146 -687 rlineto
          -56 1351 rmoveto
          344 hlineto
          -132 -618 rlineto
          -343 hlineto
          518 618 rmoveto
          226 116 -90 -172 -205 -178 -151 -242 hvcurveto
          -53 hlineto
          131 618 rlineto
          19 -644 rmoveto
          223 26 150 157 209 vvcurveto
          190 -137 107 -245 1 vhcurveto
          32 153 rlineto
          -43 hlineto
          -33 -153 rlineto
          -393 hlineto
          -307 -1443 rlineto
          393 hlineto
          -37 -176 rlineto
          44 hlineto
          37 176 rlineto
          96 hlineto
          301 219 184 254 164 -117 120 -184 26 hvcurveto
          endchar
        </CharString>
        <CharString name="bar">
          -525 201 -299 87 callgsubr
        </CharString>
        <CharString name="bar.uc">
          -525 233 -150 87 callgsubr
        </CharString>
        <CharString name="bdotaccent">
          -57 callgsubr
          -113 1624 -101 callgsubr
        </CharString>
        <CharString name="bdotbelow">
          -57 callgsubr
          -113 -302 -101 callgsubr
        </CharString>
        <CharString name="becyrillic">
          -23 666 1042 rmoveto
          -164 -157 -78 -153 -91 hvcurveto
          -4 hlineto
          105 357 146 189 349 1 rrcurveto
          69 68 4 6 52 hvcurveto
          61 6 50 11 33 12 10 44 rcurveline
          -37 -13 -54 -10 -59 -6 rrcurveto
          -5 -52 -66 -3 -65 hhcurveto
          -413 -2 -150 -233 -110 -410 rrcurveto
          -28 -103 -30 -112 -122 vvcurveto
          -267 164 -171 252 309 225 273 355 260 -162 170 -251 vhcurveto
          -117 -1012 rmoveto
          -225 -145 148 240 318 201 260 280 224 146 -149 -239 -322 -206 -256 -275 hvcurveto
          endchar
        </CharString>
        <CharString name="betagreek">
          60 322 982 rmoveto
          -281 -1321 rlineto
          50 hlineto
          140 664 rlineto
          4 hlineto
          -199 25 169 -141 210 hhcurveto
          285 179 184 277 179 -108 115 -191 36 hvcurveto
          4 vlineto
          191 35 123 136 199 vvcurveto
          191 -128 118 -208 -252 -135 -133 -344 -73 vhcurveto
          228 -228 rmoveto
          121 hlineto
          233 150 -118 -199 -244 -164 -163 -245 -222 -159 156 219 46 5 54 9 41 hvcurveto
          93 436 rlineto
          301 64 130 129 212 hhcurveto
          193 102 -96 -177 -202 -162 -136 -232 hvcurveto
          -118 hlineto
          endchar
        </CharString>
        <CharString name="bitcoin">
          72 144 80 rmoveto
          135 632 rlineto
          333 hlineto
          243 147 -100 -166 -212 -189 -154 -261 hvcurveto
          -136 1275 rmoveto
          334 hlineto
          219 103 -74 -160 -206 -183 -158 -243 hvcurveto
          -358 hlineto
          471 -21 rmoveto
          201 20 160 171 197 vvcurveto
          173 -95 87 -205 15 vhcurveto
          47 221 rlineto
          -46 hlineto
          -46 -219 rlineto
          -6 -7 0 -6 hhcurveto
          -162 hlineto
          46 219 rlineto
          -46 hlineto
          -46 -219 rlineto
          -170 hlineto
          -291 -1367 rlineto
          170 hlineto
          -46 -218 rlineto
          46 hlineto
          46 218 rlineto
          181 hlineto
          -46 -218 rlineto
          46 hlineto
          45 218 rlineto
          22 hlineto
          291 208 171 242 154 -111 108 -181 23 hvcurveto
          endchar
        </CharString>
        <CharString name="blinebelow">
          -57 callgsubr
          178 -254 -75 callgsubr
        </CharString>
        <CharString name="braceleft">
          -525 258 300 -13 callsubr
        </CharString>
        <CharString name="braceleft.uc">
          -525 289 449 -13 callsubr
        </CharString>
        <CharString name="braceright">
          -525 466 845 -12 callgsubr
        </CharString>
        <CharString name="braceright.uc">
          -525 498 994 -12 callgsubr
        </CharString>
        <CharString name="bracketleft">
          -525 456 85 callsubr
          -370 -1742 rlineto
          353 hlineto
          9 45 rlineto
          -303 hlineto
          351 1652 rlineto
          303 59 callgsubr
          endchar
        </CharString>
        <CharString name="bracketleft.uc">
          -525 487 1592 rmoveto
          -370 -1742 rlineto
          353 hlineto
          9 45 rlineto
          -303 hlineto
          351 1652 rlineto
          303 59 callgsubr
          endchar
        </CharString>
        <CharString name="bracketright">
          -525 268 -299 64 callgsubr
        </CharString>
        <CharString name="bracketright.uc">
          -525 299 -150 64 callgsubr
        </CharString>
        <CharString name="breve">
          -243 441 5 callgsubr
        </CharString>
        <CharString name="breveacutecmb">
          184 1502 36 callsubr
          -11 -324 -82 callsubr
          endchar
        </CharString>
        <CharString name="breveacutecmb.short">
          237 1754 rmoveto
          65 49 callsubr
          -209 -404 -41 callsubr
        </CharString>
        <CharString name="brevebelowcmb">
          -367 -155 8 callgsubr
        </CharString>
        <CharString name="brevecmb">
          -23 5 callgsubr
        </CharString>
        <CharString name="brevecmb.short">
          43 1771 -75 callsubr
          endchar
        </CharString>
        <CharString name="brevecyrillic">
          -248 435 1488 -85 callgsubr
        </CharString>
        <CharString name="brevecyrillic.short">
          65 1780 -78 callgsubr
        </CharString>
        <CharString name="brevegravecmb">
          291 1508 1 callsubr
          245 -21 -82 callsubr
          endchar
        </CharString>
        <CharString name="brevegravecmb.short">
          363 1754 26 callgsubr
        </CharString>
        <CharString name="brevehookabovecmb">
          119 1674 rmoveto
          14 25 39 9 37 hhcurveto
          62 36 -32 -51 -52 -40 -44 -65 -20 hvcurveto
          22 -33 rlineto
          77 25 52 60 71 vvcurveto
          69 -57 49 -82 -35 -42 -10 -13 -20 vhcurveto
          359 -229 -82 callsubr
          endchar
        </CharString>
        <CharString name="brevehookabovecmb.short">
          158 1926 rmoveto
          12 24 44 11 37 hhcurveto
          63 37 -36 -48 -43 -24 -34 -45 -23 hvcurveto
          25 -32 rlineto
          58 31 33 49 61 vvcurveto
          64 -55 52 -85 -41 -42 -11 -11 -20 vhcurveto
          113 -415 -41 callsubr
        </CharString>
        <CharString name="brevetildecmb">
          487 1487 -82 callsubr
          -81 124 rmoveto
          81 60 67 106 13 hvcurveto
          -44 hlineto
          -75 -7 -47 -55 -54 -98 -23 149 -119 hhcurveto
          -84 -67 -74 -99 -8 hvcurveto
          45 hlineto
          72 6 48 58 58 98 22 -149 120 hhcurveto
          endchar
        </CharString>
        <CharString name="brevetildecmb.short">
          457 1822 rmoveto
          81 68 70 101 24 hvcurveto
          -49 hlineto
          -77 -18 -50 -51 -53 -93 7 147 -119 hhcurveto
          -80 -71 -71 -100 -22 hvcurveto
          49 hlineto
          77 18 52 51 51 93 -7 -147 119 hhcurveto
          -177 -269 -41 callsubr
        </CharString>
        <CharString name="brokenbar">
          -525 426 760 61 callgsubr
        </CharString>
        <CharString name="brokenbar.uc">
          -525 457 909 61 callgsubr
        </CharString>
        <CharString name="bullet">
          -163 540 373 57 callgsubr
        </CharString>
        <CharString name="bullet.uc">
          -163 575 537 57 callgsubr
        </CharString>
        <CharString name="c">
          -107 648 -91 callgsubr
          endchar
        </CharString>
        <CharString name="cacute">
          -107 648 -91 callgsubr
          126 195 -76 callgsubr
        </CharString>
        <CharString name="caron">
          -295 644 1251 -79 callgsubr
        </CharString>
        <CharString name="caroncmb">
          243 1251 -79 callgsubr
        </CharString>
        <CharString name="caroncmb.short">
          262 1554 -84 callsubr
        </CharString>
        <CharString name="carondotaccentcmb">
          194 1251 42 callsubr
        </CharString>
        <CharString name="carondotaccentcmb.short">
          260 1553 41 callsubr
        </CharString>
        <CharString name="caronslovak">
          -421 575 75 callgsubr
          endchar
        </CharString>
        <CharString name="ccaron">
          -107 648 -91 callgsubr
          124 195 -79 callgsubr
        </CharString>
        <CharString name="ccedilla">
          -107 401 -143 rmoveto
          -8 -33 50 -5 rlineto
          90 -8 52 -39 -69 vvcurveto
          -78 -65 -43 -90 -66 -49 15 25 -42 vhcurveto
          -9 -44 rlineto
          -25 43 53 -16 69 hhcurveto
          119 85 64 106 90 -68 53 -115 9 hvcurveto
          82 125 rlineto
          196 158 108 178 72 hvcurveto
          -51 hlineto
          -146 -63 -143 -94 -169 hhcurveto
          -215 -146 157 235 331 208 257 269 184 133 -115 -170 21 hvcurveto
          49 hlineto
          1 0 -1 1 vvcurveto
          196 -21 -153 134 -213 hhcurveto
          -300 -227 -275 -361 -244 144 -170 222 -20 hvcurveto
          endchar
        </CharString>
        <CharString name="ccedillaacute">
          -107 1087 1555 rmoveto
          -64 hlineto
          -308 -304 rlineto
          59 hlineto
          -373 -1394 rmoveto
          -8 -33 50 -5 rlineto
          90 -8 52 -39 -69 vvcurveto
          -78 -65 -43 -90 -66 -49 15 25 -42 vhcurveto
          -9 -44 rlineto
          -25 43 53 -16 69 hhcurveto
          119 85 64 106 90 -68 53 -115 9 hvcurveto
          82 125 rlineto
          196 158 108 178 72 hvcurveto
          -51 hlineto
          -146 -63 -143 -94 -169 hhcurveto
          -215 -146 157 235 331 208 257 269 184 133 -115 -170 21 hvcurveto
          49 hlineto
          1 0 -1 1 vvcurveto
          196 -21 -153 134 -213 hhcurveto
          -300 -227 -275 -361 -244 144 -170 222 -20 hvcurveto
          endchar
        </CharString>
        <CharString name="ccircumflex">
          -107 648 -91 callgsubr
          183 499 -55 callsubr
        </CharString>
        <CharString name="cdotaccent">
          -107 648 -91 callgsubr
          106 195 -71 callsubr
        </CharString>
        <CharString name="cedi">
          72 172 599 rmoveto
          462 278 359 359 20 1 0 -1 5 vhcurveto
          -294 -1389 rlineto
          -230 42 -139 214 313 vvcurveto
          1034 -225 rmoveto
          -52 hlineto
          -224 -73 -184 -128 -252 hhcurveto
          -21 -21 1 2 -19 hvcurveto
          295 1391 244 -25 145 -156 12 -246 rlinecurve
          -1 0 -2 -1 vvcurveto
          48 hlineto
          1 0 3 1 vvcurveto
          257 -175 189 -265 25 vhcurveto
          30 135 rlineto
          -45 hlineto
          -28 -131 rlineto
          1 -6 -1 0 -24 hhcurveto
          -395 -298 -374 -501 -332 157 -233 253 -43 hvcurveto
          -34 -159 rlineto
          44 hlineto
          33 154 rlineto
          -2 20 23 -1 23 hhcurveto
          285 204 144 255 77 hvcurveto
          endchar
        </CharString>
        <CharString name="cedilla">
          -295 226 -176 -94 callsubr
        </CharString>
        <CharString name="cedillacmb">
          -176 -176 -94 callsubr
        </CharString>
        <CharString name="cent">
          72 1077 404 rmoveto
          -51 hlineto
          -134 -51 -154 -90 -179 hhcurveto
          -225 -142 150 237 354 224 278 286 187 134 -106 -157 26 hvcurveto
          49 hlineto
          1 0 1 1 vvcurveto
          -25 167 -139 125 -186 12 45 209 rcurveline
          -49 hlineto
          -46 -207 rlineto
          -316 -5 -240 -295 -386 vvcurveto
          -237 139 -163 220 -23 vhcurveto
          -48 -223 rlineto
          50 hlineto
          47 220 219 1 173 106 52 164 rlinecurve
          endchar
        </CharString>
        <CharString name="checyrillic">
          -155 782 -46 callgsubr
          endchar
        </CharString>
        <CharString name="chigreek">
          -14 929 -348 rmoveto
          16 24 4 6 21 hvcurveto
          10 45 rlineto
          -6 -24 -18 -3 -23 hhcurveto
          -73 -29 28 88 -26 hvcurveto
          -149 511 528 715 rlineto
          -58 hlineto
          -485 -663 rlineto
          -5 hlineto
          -159 538 rlineto
          96 -28 -54 38 -83 hhcurveto
          -15 -28 -3 -7 -22 hvcurveto
          -10 -45 rlineto
          6 18 29 4 18 hhcurveto
          69 40 -38 -80 23 hvcurveto
          162 -553 -514 -672 rlineto
          59 hlineto
          470 620 rlineto
          5 hlineto
          145 -490 rlineto
          -107 32 38 -32 96 hhcurveto
          endchar
        </CharString>
        <CharString name="circumflex">
          -296 712 11 callgsubr
        </CharString>
        <CharString name="circumflexacutecmb">
          299 1544 15 callsubr
        </CharString>
        <CharString name="circumflexacutecmb.short">
          25 callgsubr
          127 -5 rmoveto
          65 hlineto
          254 101 callgsubr
        </CharString>
        <CharString name="circumflexbelowcmb">
          -69 -165 -59 callsubr
        </CharString>
        <CharString name="circumflexcmb">
          302 11 callgsubr
        </CharString>
        <CharString name="circumflexcmb.short">
          357 1841 -63 callgsubr
        </CharString>
        <CharString name="circumflexgravecmb">
          614 1508 1 callsubr
          -266 36 -77 callgsubr
          endchar
        </CharString>
        <CharString name="circumflexgravecmb.short">
          25 callgsubr
          330 -5 rmoveto
          -182 27 callsubr
          endchar
        </CharString>
        <CharString name="circumflexhookabovecmb">
          373 1709 -47 callsubr
        </CharString>
        <CharString name="circumflexhookabovecmb.short">
          25 callgsubr
          80 134 rmoveto
          13 24 43 10 37 hhcurveto
          62 37 -30 -53 -42 -24 -34 -44 -23 hvcurveto
          24 -32 rlineto
          58 31 32 49 60 vvcurveto
          68 -57 47 -81 -41 -42 -11 -11 -19 vhcurveto
          endchar
        </CharString>
        <CharString name="circumflextildecmb">
          299 1544 -52 callsubr
        </CharString>
        <CharString name="circumflextildecmb.short">
          461 1825 -37 callsubr
        </CharString>
        <CharString name="colon">
          -598 214 -7 12 callsubr
          167 787 39 callsubr
          endchar
        </CharString>
        <CharString name="colon.uc">
          -598 274 277 12 callsubr
          167 787 39 callsubr
          endchar
        </CharString>
        <CharString name="coloncurrency">
          72 978 1416 rmoveto
          6 5 0 6 hhcurveto
          104 80 -12 -18 67 hvcurveto
          -711 -1281 -79 39 -65 55 -51 67 rlinecurve
          -28 40 rmoveto
          -62 98 -33 122 141 vvcurveto
          403 300 312 410 31 vhcurveto
          485 184 rmoveto
          -49 hlineto
          -94 -169 -71 21 -91 14 -102 1 rlinecurve
          74 133 rlineto
          -50 hlineto
          -74 -134 rlineto
          -461 -20 -329 -336 -451 vvcurveto
          -158 42 -136 77 -108 vhcurveto
          -241 -433 rlineto
          50 hlineto
          220 396 53 -64 67 -52 78 -39 rlinecurve
          -134 -241 rlineto
          50 hlineto
          124 223 rlineto
          -41 97 114 -22 126 hhcurveto
          43 44 4 7 31 hvcurveto
          9 45 rlineto
          -6 -40 -43 -3 -43 hhcurveto
          -118 -106 20 39 -91 hvcurveto
          endchar
        </CharString>
        <CharString name="comma">
          -618 85 -253 rmoveto
          48 callsubr
        </CharString>
        <CharString name="commaaccent">
          -242 220 -438 -36 callsubr
        </CharString>
        <CharString name="commabelowcmb">
          -234 -475 -36 callsubr
        </CharString>
        <CharString name="copyright">
          629 922 -138 rmoveto
          433 359 360 435 434 -301 299 -434 -433 -359 -360 -435 -432 302 -301 433 hvcurveto
          46 vmoveto
          -407 -281 280 407 410 338 339 407 408 280 -278 -409 -410 -338 -339 -407 hvcurveto
          409 866 rmoveto
          172 -9 -136 119 -187 hhcurveto
          -246 -193 -215 -275 -229 139 -149 215 156 128 81 134 57 hvcurveto
          -51 hlineto
          -107 -48 -111 -65 -130 hhcurveto
          -186 -122 132 205 251 170 194 217 164 118 -100 -148 10 hvcurveto
          endchar
        </CharString>
        <CharString name="cruzeiro">
          72 1020 -8 rmoveto
          9 45 rlineto
          -6 -41 -43 -3 -42 hhcurveto
          -77 -73 9 18 -69 hvcurveto
          81 381 rlineto
          218 46 145 150 166 hhcurveto
          33 50 -8 -8 20 hvcurveto
          11 50 rlineto
          7 -25 -39 5 -33 hhcurveto
          -138 -129 -89 -139 -65 hvcurveto
          -4 hlineto
          44 212 rlineto
          -47 hlineto
          -162 -765 rlineto
          -260 85 -147 216 297 vvcurveto
          426 335 322 443 110 82 -11 -30 97 vhcurveto
          11 46 rlineto
          26 -72 -116 17 -108 hhcurveto
          -482 -353 -341 -466 -410 285 -265 439 42 44 4 7 32 hvcurveto
          endchar
        </CharString>
        <CharString name="currency">
          72 353 655 rmoveto
          182 148 149 181 183 147 -149 -182 -180 -147 -150 -183 -159 -170 148 182 vhcurveto
          864 414 rmoveto
          -29 36 -233 -191 rlineto
          72 -68 -97 45 -108 hhcurveto
          -80 -74 -25 -43 -61 hvcurveto
          -109 140 -39 -31 111 -139 rlineto
          -75 -68 -48 -100 -110 vvcurveto
          -81 26 -75 44 -62 vhcurveto
          -237 -196 29 -36 238 195 rlineto
          -74 69 98 -47 108 hhcurveto
          78 73 24 42 60 hvcurveto
          107 -137 38 31 -107 135 rlineto
          78 69 50 101 111 vvcurveto
          84 -27 77 -47 63 vhcurveto
          endchar
        </CharString>
        <CharString name="cyrilliccentraldescender">
          -444 308 16 rmoveto
          -47 hlineto
          -65 -301 rlineto
          47 hlineto
          endchar
        </CharString>
        <CharString name="cyrilliccentraldescendercap">
          -444 307 16 rmoveto
          -46 hlineto
          -64 -301 rlineto
          46 hlineto
          endchar
        </CharString>
        <CharString name="cyrillicdescender">
          -421 297 13 callgsubr
          endchar
        </CharString>
        <CharString name="cyrillicdescender.short">
          -421 249 30 callgsubr
          70 330 rlineto
          -133 hlineto
          -9 -45 rlineto
          84 hlineto
          endchar
        </CharString>
        <CharString name="cyrillicdescendercap">
          -421 302 4 callgsubr
          endchar
        </CharString>
        <CharString name="cyrillicdescendercap.short">
          -421 275 40 callsubr
          endchar
        </CharString>
        <CharString name="cyrillichook">
          -420 70 -361 rmoveto
          29 hlineto
          184 47 callsubr
          -32 -78 93 callsubr
          endchar
        </CharString>
        <CharString name="cyrillichookcap">
          -421 84 -361 26 callsubr
          -31 -77 -65 -136 hhcurveto
          -12 hlineto
          endchar
        </CharString>
        <CharString name="cyrillictail">
          -421 197 79 callsubr
          -231 51 callgsubr
          169 hlineto
          endchar
        </CharString>
        <CharString name="cyrillictailcap">
          -420 193 53 callsubr
          -10 -47 rlineto
          169 hlineto
          endchar
        </CharString>
        <CharString name="d">
          -16 490 -15 2 callsubr
        </CharString>
        <CharString name="dagger">
          -163 702 1195 rmoveto
          331 59 callgsubr
          -332 hlineto
          67 310 rlineto
          -48 hlineto
          -67 -310 rlineto
          -337 hlineto
          -9 -45 rlineto
          337 hlineto
          -153 -716 rlineto
          48 hlineto
          endchar
        </CharString>
        <CharString name="daggerdbl">
          -163 948 795 rmoveto
          9 45 rlineto
          -331 hlineto
          38 179 38 179 rlineto
          332 hlineto
          9 45 rlineto
          -331 hlineto
          66 307 rlineto
          -48 hlineto
          -66 -307 rlineto
          -337 51 callgsubr
          337 hlineto
          -38 -179 -38 -179 rlineto
          -337 hlineto
          -9 -45 rlineto
          337 hlineto
          -68 -316 rlineto
          48 hlineto
          68 316 rlineto
          endchar
        </CharString>
        <CharString name="dblgrave">
          -296 677 1251 -39 callgsubr
        </CharString>
        <CharString name="dblgravecmb">
          141 1251 -39 callgsubr
        </CharString>
        <CharString name="dblgravecmb.short">
          132 1554 -45 callgsubr
          434 -287 -45 callgsubr
          endchar
        </CharString>
        <CharString name="dcaron">
          97 1412 85 callsubr
          -77 -355 rlineto
          38 101 callsubr
          -971 -1458 2 callsubr
        </CharString>
        <CharString name="dcircumflexbelow">
          -16 490 -15 -96 callgsubr
          -18 -195 -59 callsubr
        </CharString>
        <CharString name="dcommaaccent">
          -16 490 -15 -96 callgsubr
          -183 -505 -36 callsubr
        </CharString>
        <CharString name="dcroat">
          -16 499 30 rmoveto
          -203 -134 151 225 321 231 283 259 207 135 -148 -230 -318 -207 -284 -288 hvcurveto
          815 1257 rmoveto
          -114 hlineto
          33 156 rlineto
          -51 hlineto
          -33 -156 rlineto
          -297 hlineto
          -9 -44 rlineto
          296 hlineto
          -111 -524 rlineto
          -4 hlineto
          201 -17 -152 135 -201 hhcurveto
          -292 -250 -298 -356 -245 155 -171 223 175 171 103 165 89 hvcurveto
          4 hlineto
          -54 -253 rlineto
          51 hlineto
          264 1243 rlineto
          114 hlineto
          endchar
        </CharString>
        <CharString name="ddotaccent">
          -16 490 -15 -96 callgsubr
          764 1624 -101 callgsubr
        </CharString>
        <CharString name="ddotbelow">
          -16 490 -15 -96 callgsubr
          -46 -302 -101 callgsubr
        </CharString>
        <CharString name="decyrillic">
          4 callsubr
        </CharString>
        <CharString name="decyrillic.1">
          -30 539 30 rmoveto
          -224 -146 148 241 307 188 250 293 224 146 -136 -218 -331 -205 -261 -276 hvcurveto
          117 990 rmoveto
          -328 -208 -266 -336 -263 164 -171 252 289 207 248 338 37 hvcurveto
          484 54 -96 416 -433 -130 -78 -41 -1 hhcurveto
          -10 -49 rlineto
          2 4 91 43 120 hhcurveto
          309 140 -228 -429 1 hvcurveto
          -4 hlineto
          158 -44 -148 94 -188 hhcurveto
          endchar
        </CharString>
        <CharString name="degree">
          -386 564 939 rmoveto
          144 119 118 144 144 -119 118 -144 -144 -118 -118 -144 -144 118 -118 144 hvcurveto
          45 vmoveto
          -120 -98 97 120 119 98 98 120 121 98 -98 -119 -120 -98 -97 -121 hvcurveto
          endchar
        </CharString>
        <CharString name="deltagreek">
          6 570 -16 rmoveto
          296 221 228 304 197 -103 150 -217 103 hvcurveto
          -197 93 -58 54 89 vvcurveto
          128 130 83 196 117 103 -24 -40 55 vhcurveto
          11 46 rlineto
          37 -49 -120 27 -114 hhcurveto
          -228 -151 -104 -153 -99 71 -79 149 -64 hvcurveto
          -1 -4 rlineto
          -30 hlineto
          -295 -2 -219 -214 -314 vvcurveto
          -303 213 -139 220 vhcurveto
          6 46 rmoveto
          -182 -207 108 289 291 202 199 270 210 169 -181 -221 -279 -204 -206 -258 hvcurveto
          endchar
        </CharString>
        <CharString name="dieresis">
          -296 491 1251 -105 callsubr
        </CharString>
        <CharString name="dieresisacutecmb">
          239 1508 rmoveto
          59 hlineto
          314 303 rlineto
          -66 hlineto
          -457 -561 -105 callsubr
        </CharString>
        <CharString name="dieresisacutecmb.short">
          266 1754 rmoveto
          64 49 callsubr
          -365 -404 -32 callgsubr
        </CharString>
        <CharString name="dieresisbelowcmb">
          -245 -317 rmoveto
          29 25 24 -20 callsubr
          -22 callgsubr
          277 hmoveto
          29 25 24 -20 callsubr
          -22 callgsubr
          endchar
        </CharString>
        <CharString name="dieresiscaroncmb">
          88 1251 -48 callgsubr
          -124 255 rmoveto
          53 hlineto
          340 293 rlineto
          -65 hlineto
          -297 -253 rlineto
          -2 hlineto
          -188 253 rlineto
          -57 hlineto
          endchar
        </CharString>
        <CharString name="dieresiscaroncmb.short">
          304 1753 20 callgsubr
        </CharString>
        <CharString name="dieresiscmb">
          87 1251 -105 callsubr
        </CharString>
        <CharString name="dieresiscmb.short">
          163 1601 -105 callsubr
        </CharString>
        <CharString name="dieresisgravecmb">
          291 1508 1 callsubr
          -156 -258 -105 callsubr
        </CharString>
        <CharString name="dieresisgravecmb.short">
          345 1754 100 callgsubr
          -135 -201 -32 callgsubr
        </CharString>
        <CharString name="dieresismacroncmb">
          88 1251 -36 callgsubr
        </CharString>
        <CharString name="dieresismacroncmb.short">
          152 1659 -38 callsubr
        </CharString>
        <CharString name="dieresistonosgreek">
          -211 656 1251 -38 callgsubr
        </CharString>
        <CharString name="divide">
          72 1141 555 31 callgsubr
        </CharString>
        <CharString name="divide.uc">
          72 1174 710 31 callgsubr
        </CharString>
        <CharString name="djecyrillic">
          -61 294 823 rmoveto
          88 415 rlineto
          285 hlineto
          9 43 rlineto
          -285 hlineto
          37 174 rlineto
          -49 hlineto
          -37 -174 rlineto
          -119 hlineto
          -10 -43 rlineto
          120 hlineto
          -265 -1238 rlineto
          50 hlineto
          138 646 rlineto
          197 43 166 167 212 hhcurveto
          186 120 -112 -171 -25 -4 -35 -7 -38 hvcurveto
          -153 -715 -31 -143 -76 -55 -143 8 rlinecurve
          -28 2 -10 -46 rlineto
          3 29 -2 3 hhcurveto
          163 -11 100 63 39 182 156 728 rcurveline
          8 37 1 35 25 vvcurveto
          187 -140 131 -207 -174 -133 -94 -138 -81 vhcurveto
          endchar
        </CharString>
        <CharString name="dlinebelow">
          -16 490 -15 -96 callgsubr
          245 -254 -75 callgsubr
        </CharString>
        <CharString name="dollar">
          72 701 771 rmoveto
          -226 91 -87 87 138 vvcurveto
          193 170 139 237 15 15 -1 -1 14 vhcurveto
          -39 -737 rmoveto
          186 -74 79 -89 -142 vvcurveto
          -211 -174 -142 -260 -15 -15 0 1 -15 vhcurveto
          146 685 rlineto
          189 888 rmoveto
          -44 hlineto
          -28 -132 rlineto
          1 -16 -16 1 -17 hhcurveto
          -271 -192 -159 -221 -157 99 -103 248 -99 hvcurveto
          7 -3 -148 -696 -220 28 -157 137 -4 179 rlinecurve
          -51 hlineto
          4 -203 174 -156 244 -32 -33 -157 rcurveline
          44 hlineto
          33 153 rlineto
          -1 17 17 -1 18 hhcurveto
          289 198 161 238 161 -91 107 -200 80 hvcurveto
          -83 33 140 658 187 -29 141 -119 16 -152 rlinecurve
          50 hlineto
          -14 179 -156 137 -214 31 rrcurveto
          endchar
        </CharString>
        <CharString name="dotaccent">
          -241 662 1251 -71 callsubr
        </CharString>
        <CharString name="dotaccentcmb">
          225 1251 -71 callsubr
        </CharString>
        <CharString name="dotaccentcmb.short">
          312 1654 -101 callgsubr
        </CharString>
        <CharString name="dotbelowcmb">
          -97 -272 -101 callgsubr
        </CharString>
        <CharString name="dotlessi">
          -821 68 hmoveto
          -12 callsubr
          endchar
        </CharString>
        <CharString name="dotlessj">
          44 callgsubr
          endchar
        </CharString>
        <CharString name="dotmacroncmb">
          229 1250 3 callsubr
        </CharString>
        <CharString name="dotmacroncmb.short">
          293 1556 23 callsubr
        </CharString>
        <CharString name="doublebreve">
          -626 322 1632 rmoveto
          -3 -15 -2 -14 -15 vvcurveto
          -88 70 -49 111 102 callgsubr
          -82 -52 -100 hhcurveto
          -87 -57 39 70 10 1 11 3 12 hvcurveto
          -144 -441 rmoveto
          46 hlineto
          87 18 69 callgsubr
          -134 -101 -71 -110 -23 vhcurveto
          endchar
        </CharString>
        <CharString name="doublebreve.short">
          -627 411 110 callgsubr
          69 52 callgsubr
          106 hhcurveto
          93 56 -41 -69 -10 -1 -10 -2 -11 hvcurveto
          46 hlineto
          3 14 1 88 callgsubr
          endchar
        </CharString>
        <CharString name="dzecyrillic">
          -182 238 -100 callgsubr
          endchar
        </CharString>
        <CharString name="dzhecyrillic">
          -89 848 hmoveto
          71 callsubr
          -212 -995 rlineto
          -681 hlineto
          213 995 -10 callsubr
          -222 -1040 rlineto
          366 hlineto
          -59 -275 rlineto
          49 hlineto
          59 275 rlineto
          endchar
        </CharString>
        <CharString name="e">
          -90 183 562 -107 callsubr
          endchar
        </CharString>
        <CharString name="eacute">
          -90 183 562 -107 callsubr
          246 1267 -76 callgsubr
        </CharString>
        <CharString name="ebreve">
          -90 183 562 -107 callsubr
          -22 1503 -67 callsubr
        </CharString>
        <CharString name="ecaron">
          -90 183 562 -107 callsubr
          244 1267 -79 callgsubr
        </CharString>
        <CharString name="ecedilla">
          -90 183 562 rmoveto
          264 43 190 184 232 hhcurveto
          208 128 -140 -217 -43 -2 -20 -7 -28 hvcurveto
          41 -45 rmoveto
          10 37 6 54 46 vvcurveto
          247 -147 155 -234 -307 -229 -279 -372 -232 128 -158 209 -27 vhcurveto
          -88 -131 -8 -33 50 -5 rlineto
          90 -8 52 -39 -69 vvcurveto
          -78 -65 -43 -90 -66 -49 15 25 -42 vhcurveto
          -9 -44 rlineto
          -25 43 53 -16 69 hhcurveto
          119 85 64 106 90 -68 53 -115 9 hvcurveto
          83 125 rlineto
          7 7 0 8 hhcurveto
          217 167 115 191 64 hvcurveto
          -52 hlineto
          -165 -60 -143 -95 -189 hhcurveto
          -219 -138 146 234 25 3 37 7 45 hvcurveto
          endchar
        </CharString>
        <CharString name="ecedillabreve">
          -90 959 1487 rmoveto
          -116 -8 -88 -78 -122 hhcurveto
          -125 -76 63 100 11 1 9 1 11 hvcurveto
          -46 hlineto
          -1 -12 -1 -11 -11 vvcurveto
          -123 96 -80 146 151 109 97 140 9 vhcurveto
          -822 -925 rmoveto
          264 43 190 184 232 hhcurveto
          208 128 -140 -217 -43 -2 -20 -7 -28 hvcurveto
          41 -45 rmoveto
          10 37 6 54 46 vvcurveto
          247 -147 155 -234 -307 -229 -279 -372 -232 128 -158 209 -27 vhcurveto
          -88 -131 -8 -33 50 -5 rlineto
          90 -8 52 -39 -69 vvcurveto
          -78 -65 -43 -90 -66 -49 15 25 -42 vhcurveto
          -9 -44 rlineto
          -25 43 53 -16 69 hhcurveto
          119 85 64 106 90 -68 53 -115 9 hvcurveto
          83 125 rlineto
          7 7 0 8 hhcurveto
          217 167 115 191 64 hvcurveto
          -52 hlineto
          -165 -60 -143 -95 -189 hhcurveto
          -219 -138 146 234 25 3 37 7 45 hvcurveto
          endchar
        </CharString>
        <CharString name="ecircumflex">
          -90 183 562 -107 callsubr
          303 1571 -55 callsubr
        </CharString>
        <CharString name="ecircumflexacute">
          -90 183 562 -107 callsubr
          293 1527 15 callsubr
        </CharString>
        <CharString name="ecircumflexbelow">
          -90 183 562 -107 callsubr
          -55 -149 -59 callsubr
        </CharString>
        <CharString name="ecircumflexdotbelow">
          -90 183 562 -107 callsubr
          303 1571 -74 callsubr
          -574 -1523 -101 callgsubr
        </CharString>
        <CharString name="ecircumflexgrave">
          -90 183 562 -107 callsubr
          608 1491 1 callsubr
          -266 36 -77 callgsubr
          endchar
        </CharString>
        <CharString name="ecircumflexhookabove">
          -90 183 562 -107 callsubr
          367 1692 -47 callsubr
        </CharString>
        <CharString name="ecircumflextilde">
          -90 183 562 -107 callsubr
          293 1527 -52 callsubr
        </CharString>
        <CharString name="ecyrillic">
          2 callgsubr
          endchar
        </CharString>
        <CharString name="edblgrave">
          -90 183 562 -107 callsubr
          142 1267 -39 callgsubr
        </CharString>
        <CharString name="edieresis">
          -90 183 562 -107 callsubr
          88 1267 -105 callsubr
        </CharString>
        <CharString name="edotaccent">
          -90 183 562 -107 callsubr
          226 1267 -71 callsubr
        </CharString>
        <CharString name="edotbelow">
          -90 183 562 -107 callsubr
          -83 -256 -101 callgsubr
        </CharString>
        <CharString name="efcyrillic">
          234 564 -379 rmoveto
          77 360 rlineto
          420 10 273 276 339 vvcurveto
          267 -176 171 -290 9 vhcurveto
          79 369 -11 callgsubr
          -79 -368 rlineto
          -420 -11 -273 -275 -340 vvcurveto
          -267 177 -171 289 -9 vhcurveto
          -77 -360 rlineto
          767 980 rmoveto
          -304 -250 -260 -381 -11 vhcurveto
          208 982 rlineto
          262 -9 161 -148 -250 vvcurveto
          -1104 -168 rmoveto
          304 249 260 383 11 vhcurveto
          -208 -982 rlineto
          -263 9 -161 148 250 vvcurveto
          endchar
        </CharString>
        <CharString name="egrave">
          -90 183 562 -107 callsubr
          243 1267 -29 callgsubr
        </CharString>
        <CharString name="ehookabove">
          -90 183 562 -107 callsubr
          108 1431 -61 callgsubr
        </CharString>
        <CharString name="eight">
          81 1128 -27 callgsubr
        </CharString>
        <CharString name="eight.dnum">
          -546 505 198 -58 callsubr
        </CharString>
        <CharString name="eight.numr">
          -546 671 977 -58 callsubr
        </CharString>
        <CharString name="eight.subs">
          -546 433 -142 -58 callsubr
        </CharString>
        <CharString name="eight.sups">
          -546 749 1344 -58 callsubr
        </CharString>
        <CharString name="eight.tnum">
          72 1123 -27 callgsubr
        </CharString>
        <CharString name="einvertedbreve">
          -90 183 562 -107 callsubr
          474 1233 -56 callgsubr
        </CharString>
        <CharString name="elcyrillic">
          -58 342 429 -55 callgsubr
        </CharString>
        <CharString name="ellipsis">
          303 214 -7 12 callsubr
          450 hmoveto
          62 callgsubr
          451 hmoveto
          62 callgsubr
          endchar
        </CharString>
        <CharString name="emacron">
          -90 183 562 -107 callsubr
          486 1362 -73 callsubr
        </CharString>
        <CharString name="emacronacute">
          -90 183 562 -107 callsubr
          226 1485 45 callgsubr
        </CharString>
        <CharString name="emacrongrave">
          -90 183 562 -107 callsubr
          291 1485 33 callgsubr
        </CharString>
        <CharString name="emcyrillic">
          196 118 29 callsubr
        </CharString>
        <CharString name="emdash">
          941 63 539 98 callgsubr
        </CharString>
        <CharString name="emdash.uc">
          941 97 699 98 callgsubr
        </CharString>
        <CharString name="emquad">
          935 endchar
        </CharString>
        <CharString name="emspace">
          705 endchar
        </CharString>
        <CharString name="encyrillic">
          -79 68 hmoveto
          -30 callsubr
        </CharString>
        <CharString name="endash">
          -83 63 539 104 callgsubr
        </CharString>
        <CharString name="endash.uc">
          -83 97 699 104 callgsubr
        </CharString>
        <CharString name="enquad">
          -89 endchar
        </CharString>
        <CharString name="enspace">
          88 endchar
        </CharString>
        <CharString name="eogonek">
          -90 510 -384 rmoveto
          27 32 5 8 16 hvcurveto
          9 42 rlineto
          -8 -13 -24 -4 -33 hhcurveto
          -68 -50 43 59 88 77 64 227 104 hvcurveto
          78 32 123 83 53 158 rrcurveto
          -52 hlineto
          -165 -60 -143 -95 -189 hhcurveto
          -219 -138 146 234 25 3 37 7 45 hvcurveto
          841 hlineto
          10 37 6 54 46 vvcurveto
          247 -147 155 -234 -307 -229 -279 -372 -256 155 -165 248 20 27 1 2 12 vhcurveto
          -1 vlineto
          -152 -73 -65 -71 -88 vvcurveto
          -80 64 -58 88 vhcurveto
          -329 946 rmoveto
          264 43 190 184 233 hhcurveto
          207 128 -140 -217 -43 -2 -20 -7 -28 hvcurveto
          endchar
        </CharString>
        <CharString name="epsilongreek">
          -9 callsubr
          endchar
        </CharString>
        <CharString name="epsilontonosgreek">
          -9 callsubr
          290 1203 27 callgsubr
        </CharString>
        <CharString name="equal">
          72 1100 368 17 callsubr
        </CharString>
        <CharString name="equal.dnum">
          -536 506 221 18 callgsubr
        </CharString>
        <CharString name="equal.numr">
          -536 672 1000 18 callgsubr
        </CharString>
        <CharString name="equal.subs">
          -536 434 -119 18 callgsubr
        </CharString>
        <CharString name="equal.sups">
          -536 750 1367 18 callgsubr
        </CharString>
        <CharString name="equal.uc">
          72 1131 513 17 callsubr
        </CharString>
        <CharString name="ercyrillic">
          -11 569 -71 callgsubr
          endchar
        </CharString>
        <CharString name="ereversedcyrillic">
          -82 callgsubr
          endchar
        </CharString>
        <CharString name="escyrillic">
          -97 653 -91 callgsubr
          endchar
        </CharString>
        <CharString name="etagreek">
          -7 callsubr
          endchar
        </CharString>
        <CharString name="etatonosgreek">
          -7 callsubr
          -100 558 27 callgsubr
        </CharString>
        <CharString name="eth">
          -72 498 -16 rmoveto
          266 202 199 327 63 hvcurveto
          23 120 8 90 80 vvcurveto
          174 -44 147 -92 133 vhcurveto
          274 109 -7 40 -290 -115 -51 61 -52 47 -47 31 rlinecurve
          -69 hlineto
          58 -36 61 -53 57 -66 -293 -112 rcurveline
          7 -40 310 119 rlineto
          87 -123 44 -141 -161 vvcurveto
          -16 -1 -30 -1 -6 vhcurveto
          -4 hlineto
          153 -42 -138 103 -180 hhcurveto
          -309 -226 -267 -368 -231 159 -168 227 hvcurveto
          489 650 rmoveto
          -337 -214 -267 -267 -210 -133 142 222 329 206 248 272 206 140 -132 -205 vhcurveto
          endchar
        </CharString>
        <CharString name="etilde">
          -90 183 562 -107 callsubr
          370 1267 -103 callgsubr
          endchar
        </CharString>
        <CharString name="etildebelow">
          -90 183 562 -107 callsubr
          36 -354 -103 callgsubr
          endchar
        </CharString>
        <CharString name="exclam">
          -607 479 85 callsubr
          -218 -1032 rlineto
          53 hlineto
          219 1032 rlineto
          -318 -1450 12 callsubr
          endchar
        </CharString>
        <CharString name="exclamdown">
          -607 154 -340 rmoveto
          218 1032 rlineto
          -54 hlineto
          -219 -1032 rlineto
          324 1452 rmoveto
          -28 -24 -24 -29 -28 24 -24 28 29 24 24 28 29 -24 24 -29 hvcurveto
          endchar
        </CharString>
        <CharString name="f">
          -586 -50 callsubr
          endchar
        </CharString>
        <CharString name="f.1">
          -447 149 -254 rmoveto
          49 hlineto
          265 1249 rlineto
          249 59 callgsubr
          -250 hlineto
          31 147 rlineto
          131 28 80 69 109 hhcurveto
          38 30 -6 -8 28 hvcurveto
          8 45 rlineto
          9 -26 -39 5 -36 hhcurveto
          -139 -97 -81 -160 -33 hvcurveto
          -32 -151 rlineto
          -163 51 callgsubr
          163 hlineto
          endchar
        </CharString>
        <CharString name="fdotaccent">
          -586 -50 callsubr
          215 632 -101 callgsubr
        </CharString>
</ttFont>
